<svg xmlns="http://www.w3.org/2000/svg">
  <symbol id='icon-phone' viewBox='0 0 24 24'>
    <path
      d="M23.9481 18.5956C23.8802 18.3911 23.4483 18.0898 22.6528 17.6924C22.4372 17.5671 22.1301 17.3969 21.7328 17.181C21.335 16.965 20.974 16.7661 20.6504 16.5842C20.3261 16.4024 20.0222 16.2263 19.7384 16.0561C19.693 16.022 19.551 15.9227 19.3123 15.7576C19.0735 15.5929 18.872 15.4707 18.707 15.391C18.5422 15.3118 18.3802 15.2719 18.2211 15.2719C17.9939 15.2719 17.7101 15.4339 17.3693 15.7576C17.0285 16.0816 16.7159 16.4336 16.432 16.8147C16.148 17.1955 15.8468 17.5475 15.5289 17.8714C15.2106 18.1954 14.949 18.3572 14.7447 18.3572C14.6422 18.3572 14.5143 18.3286 14.361 18.2722C14.2078 18.2154 14.0913 18.1668 14.0113 18.1276C13.932 18.0875 13.7959 18.0082 13.6026 17.8885C13.409 17.7692 13.3013 17.7038 13.2786 17.6924C11.7218 16.8286 10.3867 15.8399 9.273 14.7266C8.15962 13.6127 7.17084 12.2777 6.30725 10.7208C6.29591 10.6981 6.23042 10.5901 6.11119 10.397C5.99179 10.2038 5.91221 10.0676 5.87245 9.98781C5.83268 9.90835 5.78439 9.79181 5.72767 9.63844C5.67095 9.48506 5.64248 9.3573 5.64248 9.25491C5.64248 9.05049 5.80445 8.789 6.12833 8.47079C6.45215 8.15276 6.80451 7.8515 7.18505 7.56762C7.56589 7.28374 7.91789 6.97114 8.24183 6.63036C8.56565 6.2894 8.72756 6.00546 8.72756 5.77824C8.72756 5.61925 8.6878 5.45716 8.60834 5.29244C8.52882 5.12737 8.40667 4.92594 8.24183 4.68719C8.07693 4.44856 7.97753 4.30665 7.94338 4.26098C7.77311 3.97709 7.59717 3.67315 7.41514 3.34927C7.23311 3.02545 7.03442 2.66449 6.81842 2.26682C6.6026 1.86932 6.43227 1.5624 6.30713 1.34651C5.90964 0.551227 5.60856 0.119224 5.40397 0.0512838C5.32438 0.0171941 5.20498 0 5.04605 0C4.73907 0 4.33859 0.0567167 3.84432 0.170508C3.34987 0.284121 2.96079 0.403286 2.67667 0.52848C2.10849 0.766989 1.50628 1.46013 0.869857 2.60766C0.290332 3.6756 0.000598907 4.73262 0.000598907 5.77794C0.000598907 6.08451 0.0204796 6.38278 0.060241 6.67281C0.100002 6.96254 0.171047 7.28929 0.273436 7.65299C0.375645 8.01658 0.458093 8.28667 0.520422 8.46255C0.58281 8.63855 0.699289 8.95384 0.869797 9.40852C1.04007 9.86309 1.14245 10.1414 1.17654 10.2436C1.57422 11.3573 2.0458 12.3515 2.59118 13.2266C3.4885 14.681 4.71304 16.1841 6.26409 17.7353C7.8152 19.2864 9.31802 20.5108 10.7726 21.4085C11.6475 21.9538 12.6421 22.4254 13.7556 22.8233C13.8579 22.8573 14.1362 22.9594 14.5906 23.1303C15.0451 23.3007 15.3605 23.4171 15.5365 23.4796C15.7126 23.5422 15.9828 23.6247 16.346 23.7271C16.7101 23.8295 17.0366 23.9005 17.3263 23.9406C17.6162 23.9798 17.9145 24.0001 18.2212 24.0001C19.2664 24.0001 20.3235 23.7101 21.3916 23.1307C22.539 22.4945 23.232 21.8922 23.4706 21.3236C23.5961 21.0397 23.715 20.6506 23.8286 20.1561C23.9426 19.6619 23.9992 19.2615 23.9992 18.9545C23.9995 18.795 23.9824 18.6759 23.9481 18.5956Z" />
  </symbol>
  <symbol id='logo' viewBox="0 0 53 38">
    <path
      d="M0 8.56477C0 6.10363 0.8 4.13472 2.4 2.46114C4.1 0.88601 6.1 0 8.6 0C11.2 0 13.2 0.689119 14.8 2.1658L13.6 3.93782C13 3.34715 12.2 2.95337 11.3 2.65803C10.4 2.36269 9.6 2.1658 8.7 2.1658C6.8 2.1658 5.3 2.75648 4.1 3.93782C3 5.21762 2.5 6.6943 2.5 8.56477C2.5 10.4352 3.1 12.0104 4.2 13.2902C5.4 14.5699 6.9 15.1606 8.8 15.1606C9.7 15.1606 10.7 14.9637 11.6 14.5699C12.5 14.1762 13.3 13.6839 14 12.9948L15.3 14.6684C13.5 16.4404 11.3 17.3264 8.7 17.3264C6.1 17.3264 4 16.5389 2.4 14.8653C0.8 13.0933 0 11.0259 0 8.56477Z" />
    <path d="M18.3 17.0311V0.295334H20.6V7.58031H29.4V0.295334H31.8V16.9326H29.4V9.64767H20.6V16.9326H18.3V17.0311Z" />
    <path
      d="M35.2 8.56477C35.2 6.20207 36 4.13472 37.7 2.46114C39.3 0.787565 41.4 0 43.9 0C46.4 0 48.5 0.787565 50.1 2.46114C51.8 4.13472 52.6 6.10363 52.6 8.56477C52.6 11.0259 51.8 13.0933 50.1 14.7668C48.4 16.4404 46.4 17.3264 43.9 17.3264C41.4 17.3264 39.3 16.4404 37.7 14.7668C36 13.0933 35.2 11.0259 35.2 8.56477ZM37.7 8.56477C37.7 10.4352 38.3 12.0104 39.5 13.2902C40.7 14.5699 42.2 15.1606 44 15.1606C45.8 15.1606 47.3 14.5699 48.5 13.2902C49.7 12.0104 50.3 10.4352 50.3 8.56477C50.3 6.79275 49.7 5.21762 48.5 4.03627C47.3 2.85492 45.8 2.1658 44 2.1658C42.2 2.1658 40.7 2.75648 39.5 4.03627C38.2 5.21762 37.7 6.6943 37.7 8.56477Z" />
    <path
      d="M0 29.2383C0 26.7772 0.8 24.8083 2.4 23.1347C4.1 21.5596 6.1 20.6736 8.6 20.6736C11.2 20.6736 13.2 21.3627 14.8 22.8394L13.6 24.6114C13 24.0207 12.2 23.6269 11.3 23.3316C10.4 23.0363 9.5 22.8394 8.7 22.8394C6.8 22.8394 5.3 23.43 4.1 24.6114C3 25.7927 2.4 27.3679 2.4 29.1399C2.4 31.0104 3 32.5855 4.1 33.8653C5.3 35.1451 6.8 35.7357 8.7 35.7357C9.6 35.7357 10.6 35.5389 11.5 35.1451C12.4 34.7513 13.2 34.2591 13.9 33.5699L15.2 35.2435C13.4 37.0155 11.2 37.9015 8.6 37.9015C6 37.9015 3.9 37.114 2.3 35.4404C0.8 33.7668 0 31.6995 0 29.2383Z" />
    <path
      d="M16.8 29.2383C16.8 26.7772 17.6 24.8083 19.2 23.1347C20.8 21.5596 22.9 20.6736 25.4 20.6736C28 20.6736 30 21.3627 31.6 22.8394L30.4 24.6114C29.8 24.0207 29 23.6269 28.1 23.3316C27.2 23.0363 26.3 22.8394 25.5 22.8394C23.6 22.8394 22.1 23.43 20.9 24.6114C19.8 25.7927 19.2 27.3679 19.2 29.1399C19.2 31.0104 19.8 32.5855 20.9 33.8653C22.1 35.1451 23.6 35.7357 25.5 35.7357C26.4 35.7357 27.4 35.5389 28.3 35.1451C29.2 34.7513 30 34.2591 30.7 33.5699L32 35.2435C30.2 37.0155 28 37.9015 25.4 37.9015C22.8 37.9015 20.7 37.114 19.1 35.4404C17.6 33.7668 16.8 31.6995 16.8 29.2383Z" />
    <path
      d="M33.6 29.2383C33.6 26.8756 34.4 24.8083 36.1 23.1347C37.7 21.4611 39.8 20.6736 42.3 20.6736C44.8 20.6736 46.9 21.4611 48.5 23.1347C50.1 24.8083 51 26.7772 51 29.2383C51 31.6995 50.2 33.7668 48.5 35.4404C46.8 37.114 44.8 38 42.3 38C39.8 38 37.7 37.114 36.1 35.4404C34.4 33.7668 33.6 31.6995 33.6 29.2383ZM36 29.2383C36 31.1088 36.6 32.6839 37.8 33.9637C39 35.2435 40.5 35.8342 42.3 35.8342C44.1 35.8342 45.6 35.2435 46.8 33.9637C48 32.6839 48.6 31.1088 48.6 29.2383C48.6 27.4663 48 25.8912 46.8 24.7098C45.6 23.5285 44.1 22.8394 42.3 22.8394C40.5 22.8394 39 23.43 37.8 24.7098C36.6 25.8912 36 27.3679 36 29.2383Z" />
  </symbol>
  <symbol viewBox="0 0 39 37">
    <path
      d="M5.68662 22.4709C5.68662 22.9568 5.92954 23.4426 5.92954 23.9284C5.92954 25.8718 6.17246 29.0297 6.17246 29.0297H7.38704C7.38704 29.0297 7.38704 23.9284 6.65829 21.2563C5.92954 18.3413 5.68662 12.9971 7.38704 9.11043L6.17246 8.6246C6.17246 8.6246 4.71495 11.5396 4.71495 16.1551C4.71495 19.0701 4.95787 20.2847 5.20078 21.4992C4.22911 20.7705 1.55701 18.3413 1.79993 13.24C2.28577 7.41001 7.38704 2.06581 7.38704 2.06581C7.38704 2.06581 16.375 10.5679 8.35872 20.0417L9.33039 20.7705C9.33039 20.7705 12.9742 16.6409 12.9742 12.0254C12.9742 7.41001 11.0308 3.52332 7.38704 0.365387C7.38704 0.365387 1.07118 6.43834 0.585343 13.7259C0.342425 20.5276 5.4437 22.9568 5.4437 22.9568L5.68662 22.4709Z" />
    <path
      d="M18.3183 16.1551C9.33038 18.8272 9.81622 27.5722 10.0591 29.5156C6.9012 32.6735 5.4437 35.5885 5.4437 35.5885L6.41537 36.0743C15.6462 20.7705 29.9784 23.6855 29.9784 23.6855V22.4709C21.2334 21.4993 15.1604 24.9001 11.0308 28.301C10.7879 25.143 12.2454 17.6126 21.4763 16.8838C32.1647 16.6409 37.2659 22.9568 37.2659 22.9568C31.6788 31.9447 25.363 33.1593 21.4763 33.6452C17.3467 34.3739 12.2454 31.4589 12.2454 31.4589L11.7596 32.4306C11.7596 32.4306 16.1321 35.3456 21.7192 34.8597C33.8651 33.4022 38.4805 22.7138 38.4805 22.7138C37.2659 20.2847 28.278 13.7259 18.3183 16.1551Z" />
  </symbol>
  <symbol id='icon-leaf' viewBox="0 0 52 52">
    <path
      d="M8.48057 31.0363C8.48057 31.6525 8.78867 32.2686 8.78867 32.8848C8.78867 35.3496 9.09676 39.3547 9.09676 39.3547H10.6372C10.6372 39.3547 10.6372 32.8848 9.71294 29.4958C8.78867 25.7987 8.48058 19.0207 10.6372 14.0913L9.09676 13.4751C9.09676 13.4751 7.24821 17.1722 7.24821 23.0259C7.24821 26.723 7.5563 28.2635 7.86439 29.8039C6.63203 28.8796 3.24303 25.7987 3.55112 19.3288C4.1673 11.9346 10.6372 5.15664 10.6372 5.15664C10.6372 5.15664 22.0366 15.9398 11.8696 27.9554L13.1019 28.8797C13.1019 28.8797 17.7233 23.6421 17.7233 17.7884C17.7233 11.9346 15.2586 7.00518 10.6372 3C10.6372 3 2.62685 10.7023 2.01066 19.945C1.70257 28.5716 8.17248 31.6525 8.17248 31.6525L8.48057 31.0363Z" />
    <path
      d="M24.5013 23.0259C13.1019 26.4149 13.7181 37.5062 14.0262 39.9709C10.021 43.9761 8.17249 47.6732 8.17249 47.6732L9.40485 48.2894C21.1123 28.8797 39.2897 32.5768 39.2897 32.5768V31.0363C28.1984 29.8039 20.4961 34.1172 15.2586 38.4305C14.9505 34.4253 16.799 24.8745 28.5065 23.9502C42.0625 23.6421 48.5324 31.6525 48.5324 31.6525C41.4463 43.0518 33.436 44.5923 28.5065 45.2085C23.2689 46.1328 16.799 42.4357 16.799 42.4357L16.1829 43.668C16.1829 43.668 21.7285 47.3651 28.8146 46.7489C44.2191 44.9004 50.0729 31.3444 50.0729 31.3444C48.5324 28.2635 37.133 19.945 24.5013 23.0259Z" />
  </symbol>
  <symbol id='icon-ruler' viewBox="0 0 52 52">
    <path
      d="M15.9398 11.6266C15.9398 12.2428 17.1722 12.8589 19.0207 12.8589C20.8693 12.8589 22.1016 12.2428 22.1016 11.6266C22.1016 11.0104 20.8693 10.3942 19.0207 10.3942C17.4803 10.3942 15.9398 10.7023 15.9398 11.6266Z" />
    <path
      d="M49.2137 23.0259C49.2137 19.945 46.7489 17.4803 43.668 17.4803H42.4356H15.3236C15.3236 17.4803 7.92946 17.7884 4.54046 11.9346C4.84855 7.62137 8.23755 4.54046 12.5508 4.54046H24.8745C29.4958 4.54046 32.8848 8.23755 32.8848 12.5508V14.0913H34.4253V12.8589C34.4253 7.31327 30.112 3 24.5664 3H12.8589C7.31327 3 3 7.31327 3 12.8589V16.8641V17.4803V27.3392C3 32.8848 7.31327 37.1981 12.8589 37.1981H15.0155V35.6576H12.5508C7.92946 35.6576 4.54046 31.9606 4.54046 27.6473V17.4803V16.8641V14.7075C5.46473 15.9398 8.54564 19.0207 15.0155 19.0207C24.2583 19.0207 42.1276 19.0207 42.1276 19.0207H43.668C45.8246 19.0207 47.3651 20.5612 47.3651 22.7178V24.5664V25.1826C47.3651 27.3392 45.8246 28.8797 43.668 28.8797H43.3599H23.9502C20.8693 28.8797 18.4046 31.3444 18.4046 34.4253V42.7437C18.4046 45.8247 20.8693 48.2894 23.9502 48.2894H43.668C46.7489 48.2894 49.2137 45.8247 49.2137 42.7437V34.4253C49.2137 34.4253 49.2137 27.0311 49.2137 24.8745C49.2137 24.8745 49.2137 24.8745 49.2137 24.5664V23.0259ZM47.3651 43.3599C47.3651 45.5166 45.8246 47.057 43.668 47.057H23.6421C21.4855 47.057 19.945 45.5166 19.945 43.3599V34.4253C19.945 32.2686 21.4855 30.7282 23.6421 30.7282H29.4958V35.9657H31.0363V30.7282H38.1224H40.8952V35.9657H42.4356V30.7282H43.668C45.2085 30.7282 46.7489 30.112 47.6732 29.1877V43.3599H47.3651Z" />
  </symbol>
  <symbol id='icon-delivery' viewBox="0 0 52 52">
    <path
      d="M8.68487 21.0953L11.4295 18.8996H11.7039C12.5273 18.8996 13.0762 18.3507 13.0762 17.5273C13.0762 16.9784 12.8018 16.7039 12.5273 16.4295V10.6658H11.155V16.4295C10.6061 16.7039 10.3316 16.9784 10.3316 17.5273V17.8018L7.58703 19.9975L8.68487 21.0953Z" />
    <path
      d="M50.4028 35.9161V27.1334C50.4028 24.3888 49.3049 23.291 49.3049 23.291C49.3049 23.291 46.5603 19.723 44.9136 17.5273C43.2668 15.3316 41.0711 15.3316 41.0711 15.3316H31.7395V13.9593C31.7395 12.0381 30.3672 10.6658 28.446 10.6658H20.4866C18.5654 7.92122 15.2719 6 11.7039 6C5.66582 6 1 10.9403 1 16.9784C1 19.4485 1.82338 21.6442 3.19568 23.5654V35.6417C3.19568 37.5629 4.56798 38.9352 6.48919 38.9352H7.86149V39.2096C7.86149 42.5031 10.6061 45.2477 13.8996 45.2477C17.1931 45.2477 19.9377 42.5031 19.9377 39.2096C19.9377 38.9352 19.9377 38.9352 19.9377 38.9352H28.1715H28.446C29.2694 38.9352 31.1906 38.9352 33.6607 38.9352V39.2096C33.6607 42.5031 36.4053 45.2477 39.6988 45.2477C42.9923 45.2477 45.7369 42.5031 45.7369 39.2096C45.7369 38.9352 45.7369 38.9352 45.7369 38.9352C46.0114 38.9352 46.2859 38.9352 46.2859 38.9352C50.9517 39.2096 50.4028 35.9161 50.4028 35.9161ZM49.0305 26.31C49.0305 26.31 49.0305 26.5845 49.0305 27.1334H38.3265C37.7776 27.1334 37.2287 26.5845 37.2287 26.0356V21.6442C37.2287 21.0953 37.7776 20.5464 38.3265 20.5464H45.4625C46.2859 21.3697 47.1092 22.4676 47.6582 23.291C49.0305 24.9377 49.0305 26.31 49.0305 26.31ZM11.7039 7.64676C16.9187 7.64676 21.31 11.7637 21.31 17.2529C21.31 22.742 16.9187 26.5845 11.7039 26.5845C6.4892 26.5845 2.3723 22.1931 2.3723 16.9784C2.3723 11.7637 6.4892 7.64676 11.7039 7.64676ZM13.6251 43.8754C11.155 43.8754 9.23379 41.9542 9.23379 39.4841C9.23379 37.014 11.155 35.0927 13.6251 35.0927C16.0953 35.0927 18.0165 37.014 18.0165 39.4841C18.0165 41.9542 16.0953 43.8754 13.6251 43.8754ZM19.1143 37.5629C18.291 35.3672 16.0953 33.446 13.6251 33.446C11.155 33.446 8.95933 35.0927 8.13595 37.5629H6.21474C5.39136 37.5629 4.56798 36.7395 4.56798 35.9161V24.9377C6.48919 26.5845 8.95933 27.6823 11.7039 27.6823C17.742 27.6823 22.4079 22.742 22.4079 16.9784C22.4079 15.3316 21.8589 13.6849 21.31 12.3126H28.446C29.2694 12.3126 30.0927 13.136 30.0927 13.9593V35.9161C30.0927 36.7395 29.2694 37.5629 28.446 37.5629H19.1143ZM39.4244 43.8754C36.9542 43.8754 35.033 41.9542 35.033 39.4841C35.033 37.014 36.9542 35.0927 39.4244 35.0927C41.8945 35.0927 43.8157 37.014 43.8157 39.4841C43.8157 41.9542 41.8945 43.8754 39.4244 43.8754ZM46.2859 37.8373H45.188C44.3646 35.3672 42.169 33.7204 39.6988 33.7204C36.9542 33.7204 34.7585 35.3672 34.2096 37.8373H31.465C32.014 37.2884 32.2884 36.7395 32.2884 35.9161V16.4295C32.2884 16.4295 38.3265 16.4295 40.7967 16.4295C43.2668 16.4295 44.3646 18.0762 44.3646 18.0762C44.3646 18.0762 44.0902 18.6251 44.6391 19.1741H38.3265C36.9542 19.1741 36.1308 20.2719 36.1308 21.3697V25.7611C36.1308 27.1334 37.2287 27.9568 38.3265 27.9568H49.3049C49.3049 30.1525 49.3049 33.446 49.3049 35.0927C49.0305 38.1118 46.2859 37.8373 46.2859 37.8373Z" />
  </symbol>
  <symbol id="icon-smile" viewBox="0 0 68 68">
    <path
      d="M34 2C16.4314 2 2 16.4314 2 34C2 51.5686 16.4314 66 34 66C51.5686 66 66 51.5686 66 34C66 16.4314 51.5686 2 34 2ZM34 63.4902C17.6863 63.4902 4.5098 50.3137 4.5098 34C4.5098 17.6863 17.6863 4.5098 34 4.5098C50.3137 4.5098 63.4902 17.6863 63.4902 34C63.4902 50.3137 50.3137 63.4902 34 63.4902Z" />
    <path
      d="M34 50.6275C23.0196 50.6275 16.4314 40.902 16.4314 40.902L14.2353 42.4706C23.0196 53.7647 34 53.451 34 53.451C34 53.451 44.9804 54.0785 53.7647 42.4706L51.5686 40.902C51.5686 40.902 44.9804 50.6275 34 50.6275Z" />
    <path
      d="M23.3333 37.451C30.8627 34 32.1176 29.6078 32.1176 27.4118C32.1176 24.902 30.549 22.0784 27.7255 22.0784C24.5882 22.0784 23.3333 23.6471 23.3333 23.6471C23.3333 23.6471 22.0784 22.0784 18.9412 22.0784C16.1176 22.0784 14.549 25.2157 14.549 27.4118C14.549 29.6078 15.8039 34 23.3333 37.451ZM23.3333 26.7843C24.902 24.2745 29.2941 23.9608 29.6078 27.098C29.6078 31.4902 23.3333 34.6275 23.3333 34.6275C23.3333 34.6275 17.0588 31.4902 17.0588 27.098C17.3725 23.9608 21.7647 24.2745 23.3333 26.7843Z" />
    <path
      d="M44.6667 37.451C52.1961 34 53.451 29.6078 53.451 27.7255C53.451 25.2157 51.8824 22.3922 49.0588 22.3922C45.9216 22.3922 44.6667 23.9608 44.6667 23.9608C44.6667 23.9608 43.4118 22.3922 40.2745 22.3922C37.451 22.3922 35.8824 25.5294 35.8824 27.7255C35.8824 29.6078 37.1373 34 44.6667 37.451ZM44.6667 26.7843C46.2353 24.2745 50.6274 23.9608 50.9412 27.098C50.9412 31.4902 44.6667 34.6274 44.6667 34.6274C44.6667 34.6274 38.3922 31.4902 38.3922 27.098C38.7059 23.9608 43.098 24.2745 44.6667 26.7843Z" />
  </symbol>
  <symbol id="icon-handsup" viewBox="0 0 68 69">
    <path
      d="M62.03 19.665C62.72 18.975 63.41 18.285 63.755 17.595C66.17 14.49 65.825 13.11 63.41 11.04C60.995 8.97 57.2 12.075 57.2 12.075C57.2 12.075 56.855 12.42 56.51 12.765C52.715 9.315 47.885 6.555 42.365 5.175C40.295 2.07 37.19 0 33.74 0C29.945 0 26.84 2.415 24.77 5.52C20.285 6.9 16.145 9.315 12.695 12.42C12.005 12.075 10.625 10.695 8.9 10.35C6.485 10.005 4.07 11.73 3.725 14.145C3.725 15.525 5.105 17.595 6.83 19.665C3.725 24.495 2 30.015 2 36.225C2 53.82 16.49 68.31 34.43 68.31C40.64 68.31 46.85 66.585 51.68 63.48L50.645 61.065C46.16 49.68 47.195 42.435 47.54 38.985C48.575 35.19 52.37 30.015 54.44 27.255C55.82 25.53 57.89 23.805 59.96 21.735C62.72 25.875 64.1 30.705 64.1 36.225C64.1 44.16 60.65 51.405 55.475 56.925L57.545 58.65C63.41 52.785 66.86 44.85 66.86 36.225C66.86 30.015 65.135 24.495 62.03 19.665ZM33.74 2.76C38.225 2.76 41.675 6.9 41.675 12.075C41.675 17.25 38.225 21.39 33.74 21.39C29.255 21.39 25.805 17.595 25.805 12.075C25.805 6.555 29.255 2.76 33.74 2.76ZM33.74 24.15C39.605 24.15 44.435 18.63 44.435 12.075C44.435 10.695 44.09 9.66 43.745 8.28C47.885 9.66 51.335 11.73 54.44 14.49C51.68 16.905 47.54 20.01 45.47 21.39C42.365 23.805 37.19 26.22 33.05 26.22C28.91 26.22 26.84 24.495 23.735 23.115C20.975 21.735 16.49 16.56 14.42 14.49C17.18 12.075 20.285 10.35 23.39 8.97C23.39 10.005 23.045 11.04 23.045 12.075C23.045 18.975 27.875 24.15 33.74 24.15ZM4.76 36.225C4.76 31.05 6.14 26.22 8.555 21.735C9.245 22.425 9.59 22.77 9.59 22.77C9.59 22.77 18.215 32.775 19.94 35.19C21.665 37.605 19.595 39.33 18.215 45.54C17.18 50.37 17.18 56.925 17.18 60.03C9.59 54.51 4.76 45.885 4.76 36.225ZM58.235 19.665C56.855 21.045 52.025 25.185 47.885 31.74C43.745 38.295 44.435 43.47 44.78 47.265C45.125 51.06 46.16 54.51 46.505 55.89C46.85 56.925 48.23 60.72 48.575 61.755C44.435 63.825 39.605 65.205 34.775 65.205C29.255 65.205 24.425 63.825 19.94 61.41C19.94 49.68 20.63 47.955 20.975 46.23C20.975 44.505 22.01 41.055 23.045 38.295C23.735 35.88 22.7 33.81 21.665 32.775C20.63 31.74 10.625 19.665 8.9 17.25C6.83 14.835 6.485 13.8 8.21 13.11C9.935 12.075 14.42 17.595 16.49 20.01C18.215 22.425 26.15 28.98 33.395 28.635C40.64 28.29 45.815 24.495 47.885 23.115C49.61 21.735 58.58 14.49 59.96 13.455C61.34 12.42 63.065 13.455 62.72 14.49C62.375 15.525 59.615 18.285 58.235 19.665Z" />
  </symbol>
  <symbol id="icon-arm" viewBox="0 0 68 68">
    <path
      d="M51.9372 15.4497C45.9103 15.4497 38.1614 19.7547 38.4484 28.6515C38.4484 28.6515 26.6816 24.9206 23.2377 37.2614C23.2377 37.2614 21.2287 32.9565 18.6457 30.9475C15.7758 28.9385 12.3318 23.7726 12.0448 21.1896C12.3318 19.7547 12.6188 19.7547 13.1928 19.4677C13.4798 19.4677 13.4798 21.7636 16.0628 22.0506C18.3587 21.7636 18.9327 21.1896 19.7937 20.0417L22.3767 17.1717C22.3767 17.1717 24.9596 13.7278 22.6637 12.0058C20.6547 9.99681 16.9238 6.26587 12.3318 7.12686C9.74888 7.70085 7.73991 9.70982 7.73991 9.70982L4.29596 12.8668C4.29596 12.8668 2 15.1627 2 19.7547C2 23.7726 2.86099 30.3735 2.86099 30.3735C2.86099 30.3735 3.72197 35.5394 4.00897 37.2614C4.29596 38.9834 6.59193 49.0282 12.0448 54.4811C15.4888 58.4991 17.4978 60.221 19.2197 60.508C22.0897 60.508 23.5247 58.7861 25.8206 58.7861C28.1166 58.7861 30.4126 60.508 35.2915 60.508C40.1704 60.508 51.0762 57.6381 55.6682 43.5753C59.9731 41.8533 66 38.6964 66 29.2255C66 19.7547 57.6771 15.4497 51.9372 15.4497ZM53.9462 41.8533C50.7892 54.4811 40.7444 57.9251 35.8655 58.4991C31.2735 58.4991 28.6906 56.7771 25.2466 56.7771C23.2377 56.7771 20.3677 58.4991 19.5067 58.4991C18.6457 58.4991 16.3498 56.4901 13.4798 53.3331C10.6099 50.1762 9.46188 47.3062 8.3139 45.0103C7.16592 42.7143 5.15695 33.5304 5.15695 33.5304C5.15695 33.5304 4.29596 24.3466 4.29596 20.3287C4.29596 16.5977 6.01794 14.3017 6.01794 14.3017C6.01794 14.3017 8.3139 12.2928 10.6099 10.2838C13.1928 8.27484 16.3498 9.70982 16.3498 9.70982C16.3498 9.70982 19.5067 11.7188 20.6547 12.8668C22.0897 14.0148 20.6547 15.1627 20.6547 15.1627C20.6547 15.1627 17.4978 19.1807 16.3498 19.4677C14.9148 19.7547 14.6278 16.3107 14.6278 16.3107C13.1928 16.8847 10.8969 17.4587 10.0359 20.0417C9.17489 23.1986 13.7668 29.7995 17.2108 32.9565C20.3677 36.1134 22.3767 41.2793 22.3767 41.2793L24.9596 40.4183C24.9596 40.4183 24.6726 34.3914 29.8386 31.2345C35.5785 28.0775 40.7444 32.3825 40.7444 32.3825C39.0224 18.0327 51.6502 17.7457 52.5112 17.7457C53.3722 17.7457 63.417 18.6067 64.278 28.6515C63.704 40.1313 53.9462 41.8533 53.9462 41.8533Z" />
  </symbol>


  <symbol id="icon-fb" viewBox="0 0 24 24">
    <path
      d="M24 22.6921C24 23.4114 23.4114 24 22.6921 24H16.545V14.7139H19.6839L20.1417 11.1172H16.545V8.82834C16.545 7.78202 16.8065 7.06267 18.3106 7.06267H20.2071V3.79292C19.8801 3.72752 18.7684 3.66213 17.3951 3.66213C14.6485 3.66213 12.752 5.3624 12.752 8.43597V11.1172H9.61308V14.7139H12.752V24H1.3079C0.588556 24 0 23.4114 0 22.6921V1.3079C0 0.588556 0.588556 0 1.3079 0H22.6921C23.4114 0 24 0.588556 24 1.3079V22.6921Z" />
  </symbol>

  <symbol id="icon-linkedin" viewBox="0 0 24 24">
    <path
      d="M21.1226 0H2.87738C1.3079 0 0 1.24251 0 2.81199V21.188C0 22.7575 1.3079 24 2.87738 24H21.1226C22.6921 24 24 22.7575 24 21.188V2.81199C24 1.24251 22.6921 0 21.1226 0ZM17.2643 3.72752C17.2643 3.33515 17.5913 3.00817 17.9837 3.00817H20.2725C20.6649 3.00817 20.9918 3.33515 20.9918 3.72752V5.95095C20.9918 6.34332 20.6649 6.6703 20.2725 6.6703H18.049C17.6567 6.6703 17.3297 6.34332 17.3297 5.95095L17.2643 3.72752ZM12.0327 7.38965C14.5831 7.38965 16.6757 9.41689 16.6757 11.9673C16.6757 14.5177 14.5831 16.545 12.0327 16.545C9.48229 16.545 7.38965 14.5177 7.38965 11.9673C7.38965 9.48229 9.48229 7.38965 12.0327 7.38965ZM21.7112 20.9918C21.7112 21.3842 21.3842 21.7112 20.9918 21.7112H3.00817C2.6158 21.7112 2.28883 21.3842 2.28883 20.9918V9.74387H5.23161C4.83924 10.3324 4.70845 11.3787 4.70845 12.0327C4.70845 16.0218 7.9782 19.2916 12.0327 19.2916C16.0872 19.2916 19.3569 16.0218 19.3569 12.0327C19.3569 11.3787 19.2916 10.3324 18.7684 9.74387H21.7766L21.7112 20.9918Z" />
  </symbol>

  <symbol id="icon-twitter" viewBox="0 0 24 24">
    <path
      d="M23.346 2.41963C22.3651 3.00818 21.3188 3.40055 20.2071 3.66213C19.2916 2.68121 18.049 2.09265 16.6104 2.09265C13.8638 2.09265 11.7057 4.38148 11.7057 7.12807C11.7057 7.52044 11.7711 7.91281 11.8365 8.30519C7.71662 8.0436 4.11989 6.01636 1.70027 2.94279C1.3079 3.66213 1.04632 4.57766 1.04632 5.4932C1.04632 7.25886 1.89646 8.76295 3.26975 9.67848C2.48501 9.67848 1.70027 9.4169 1.04632 9.02453V9.15532C1.04632 11.5749 2.74659 13.6676 4.97003 14.1253C4.57766 14.2561 4.11989 14.3215 3.66213 14.3215C3.33515 14.3215 3.00817 14.3215 2.74659 14.2561C3.40054 16.2834 5.16621 17.7221 7.32425 17.7875C5.62398 19.1608 3.53133 19.9455 1.17711 19.9455C0.784741 19.9455 0.392371 19.9455 0 19.8801C2.15804 21.3188 4.77384 22.1689 7.52044 22.1689C16.6104 22.1689 21.515 14.4523 21.515 7.78202C21.515 7.58584 21.515 7.32426 21.515 7.12807C22.4959 6.40873 23.346 5.55859 24 4.51227C23.1499 4.90464 22.1689 5.16622 21.188 5.29701C22.1689 4.57767 22.9537 3.59674 23.346 2.41963Z" />
  </symbol>

  <symbol id="icon-vk" viewBox="0 0 24 24">
    <path
      d="M23.8692 17.5259C23.8692 17.4605 23.8038 17.3951 23.8038 17.3951C23.4114 16.6757 22.5613 15.6948 21.3842 14.6485C20.861 14.1253 20.5341 13.7984 20.4033 13.6022C20.1417 13.2752 20.0763 12.9482 20.2071 12.6212C20.3379 12.3597 20.6649 11.8365 21.3188 10.9864C21.6458 10.5286 21.9074 10.2016 22.1035 9.94004C23.5422 8.04358 24.1962 6.80108 24 6.27792L23.9346 6.14712C23.8692 5.95094 23.7384 5.88554 23.5422 5.82015C23.3461 5.75475 23.0845 5.75475 22.7575 5.82015H19.1608C19.0954 5.82015 19.03 5.82015 18.8992 5.82015C18.7684 5.82015 18.7684 5.88554 18.7684 5.88554H18.703L18.6376 5.95094C18.5722 5.95094 18.5722 6.01633 18.5068 6.08173C18.4414 6.14713 18.4414 6.21252 18.376 6.27792C17.9837 7.25884 17.5259 8.23977 17.0681 9.0899C16.7411 9.61306 16.4796 10.0708 16.218 10.4632C15.9564 10.8556 15.7602 11.1172 15.564 11.3133C15.3678 11.5095 15.2371 11.6403 15.1063 11.7711C14.9755 11.9019 14.8447 11.9019 14.7793 11.9019C14.7139 11.9019 14.6485 11.8365 14.5831 11.8365C14.4523 11.7711 14.3869 11.6403 14.3215 11.5095C14.2561 11.3787 14.1907 11.2479 14.1907 11.0518C14.1907 10.8556 14.1253 10.6594 14.1253 10.5286C14.1253 10.3978 14.1253 10.2016 14.1253 9.94004C14.1253 9.67846 14.1253 9.48227 14.1253 9.41688C14.1253 9.0899 14.1253 8.76293 14.1253 8.37056C14.1253 7.97819 14.1253 7.71661 14.1253 7.52042C14.1253 7.32424 14.1253 7.06266 14.1253 6.80108C14.1253 6.5395 14.1253 6.34331 14.0599 6.21252C14.0599 6.08173 13.9946 5.95094 13.9292 5.82015C13.8638 5.68936 13.7984 5.55857 13.6676 5.49317C13.5368 5.42778 13.406 5.36238 13.2752 5.29699C12.8174 5.1662 12.2943 5.1662 11.5749 5.1662C10.0055 5.1662 9.02452 5.23159 8.56676 5.49317C8.37057 5.55857 8.23978 5.68936 8.10899 5.88554C7.9782 6.08173 7.91281 6.14712 8.0436 6.21252C8.56676 6.27792 8.89373 6.4741 9.08992 6.73568L9.15531 6.86647C9.22071 6.99726 9.2861 7.19345 9.3515 7.45503C9.41689 7.71661 9.41689 8.04358 9.48229 8.37056C9.54768 8.95911 9.54768 9.48227 9.48229 9.94004C9.41689 10.3978 9.41689 10.7248 9.3515 10.921C9.2861 11.1825 9.2861 11.3787 9.15531 11.5095C9.08992 11.6403 9.02452 11.7711 9.02452 11.7711C9.02452 11.8365 8.95913 11.8365 8.95913 11.8365C8.82834 11.9019 8.76294 11.9019 8.63215 11.9019C8.50136 11.9019 8.37057 11.8365 8.23978 11.7057C8.0436 11.5749 7.91281 11.4441 7.71662 11.2479C7.52044 11.0518 7.32425 10.7902 7.12807 10.3978C6.93188 10.0054 6.6703 9.61306 6.40872 9.0899L6.21253 8.69753C6.08174 8.43595 5.88556 8.10898 5.68937 7.65121C5.49319 7.19345 5.297 6.80108 5.10082 6.34331C5.03542 6.21252 4.90463 6.08173 4.77384 5.95094H4.70845C4.64305 5.88554 4.57766 5.88554 4.51226 5.82015C4.44687 5.82015 4.31608 5.75475 4.25068 5.75475H0.850136C0.457766 5.75475 0.196185 5.88554 0.0653951 6.01633V6.08173C0 6.14713 0 6.21252 0 6.27792C0 6.34331 0 6.4741 0.0653951 6.60489C0.588556 7.782 1.11172 8.89372 1.70027 10.0054C2.28883 11.1172 2.81199 11.9673 3.20436 12.6212C3.66213 13.2752 4.0545 13.9291 4.51226 14.5177C4.97003 15.1063 5.23161 15.4986 5.42779 15.6294C5.55858 15.8256 5.68937 15.891 5.75477 16.0218L6.08174 16.3488C6.27793 16.5449 6.60491 16.8065 6.93188 17.0681C7.32425 17.3297 7.71662 17.5913 8.23978 17.9182C8.69755 18.1798 9.2861 18.4414 9.87466 18.5722C10.5286 18.7684 11.1172 18.8338 11.7057 18.7684H13.1444C13.406 18.7684 13.6676 18.6376 13.7984 18.5068L13.8638 18.4414C13.9292 18.376 13.9292 18.3106 13.9292 18.1798C13.9292 18.049 13.9946 17.9836 13.9946 17.8528C13.9946 17.5259 13.9946 17.1989 14.0599 16.8719C14.1253 16.6103 14.1907 16.3488 14.2561 16.218C14.3215 16.0872 14.4523 15.9564 14.5177 15.8256C14.6485 15.6948 14.7139 15.6948 14.7139 15.6294C14.7793 15.6294 14.7793 15.564 14.8447 15.564C15.0409 15.4986 15.3025 15.564 15.564 15.7602C15.8256 15.9564 16.0872 16.218 16.3488 16.4795C16.6104 16.7411 16.8719 17.0681 17.1989 17.4605C17.5259 17.7875 17.8529 18.1144 18.049 18.2452L18.3106 18.376C18.5068 18.5068 18.703 18.5722 18.9646 18.6376C19.2262 18.703 19.4877 18.7684 19.6839 18.703L22.8883 18.6376C23.2153 18.6376 23.4768 18.5722 23.6076 18.5068C23.8038 18.376 23.8692 18.3106 23.9346 18.1798C24 18.049 24 17.9182 23.9346 17.7221C23.9346 17.7221 23.9346 17.5913 23.8692 17.5259Z" />
  </symbol>

  <symbol id='icon-humberger' viewBox="0 0 27 24">
    <path
      d="M24 0H2.06335C0.868778 0 0 0.868778 0 2.06335V2.38914C0 3.47511 0.868778 4.34389 2.06335 4.34389H24.1086C25.1946 4.34389 26.1719 3.47511 26.1719 2.28054V2.06335C26.0633 0.868778 25.1946 0 24 0Z" />
    <path
      d="M24 9.77374H2.06335C0.868778 9.77374 0 10.7511 0 11.8371V12.1629C0 13.2489 0.868778 14.2262 2.06335 14.2262H24.1086C25.1946 14.2262 26.1719 13.3575 26.1719 12.1629V11.8371C26.0633 10.7511 25.1946 9.77374 24 9.77374Z" />
    <path
      d="M24 19.5475H2.06335C0.977376 19.5475 0 20.4163 0 21.6109V21.9367C0 23.0226 0.868778 24 2.06335 24H24.1086C25.1946 24 26.1719 23.1312 26.1719 21.9367V21.6109C26.0633 20.5249 25.1946 19.5475 24 19.5475Z" />

  </symbol>
  <symbol id='icon-checkmark' viewBox="0 0 31 24">
    <path
      d="M28.4138 1.65506C26.4828 -0.551832 23.1724 -0.551832 21.2414 1.3792L11.0345 11.5861L8.82758 9.3792C6.89655 7.44817 3.5862 7.44817 1.65517 9.3792H1.37931C-0.551726 11.3102 -0.551726 14.6206 1.37931 16.5516L7.44827 22.6206C8.55172 23.724 9.93103 23.9999 11.0345 23.9999C12.4138 23.9999 13.5172 23.4482 14.6207 22.6206L28.4138 8.82748C30.3448 6.89644 30.3448 3.5861 28.4138 1.65506Z" />

  </symbol>

  <symbol id="bg-ellipse" viewBox="0 0 392 321">
    <path fill-rule=" evenodd" clip-rule="evenodd"
      d="M72.1959 79.4498C-102.423 119.406 66.4506 391.902 298.332 302.245C377.734 267.588 409.675 196.71 382.034 139.101C352.115 76.7464 165.771 58.0392 72.1959 79.4498Z"
      fill="#EEF1EF" />
    <path fill-rule="evenodd" clip-rule="evenodd"
      d="M287.556 0.447394C439.227 0.447394 423.375 297.419 184.548 308.112C86.0323 308.112 6.16935 242.429 6.16935 161.405C6.16935 80.3803 189.04 0.447394 287.556 0.447394Z"
      fill="#86C3D7" />
  </symbol>

  <symbol id='icon-choco' viewBox="0 0 46 46">
    <path
      d="M44.6903 7.1641L38.8069 1.27893C37.9858 0.457505 36.8943 0 35.7301 0C34.5659 0 33.4641 0.457505 32.6429 1.27893C31.7802 2.14195 31.3436 3.29611 31.3644 4.46067C30.2002 4.43987 29.0464 4.87658 28.1837 5.7396C27.3209 6.60262 26.8843 7.75678 26.9051 8.92134C25.7409 8.89015 24.5871 9.33725 23.7244 10.2003C22.8616 11.0633 22.425 12.2175 22.4458 13.382C21.2816 13.3612 20.1278 13.7979 19.2651 14.6609L4.71265 29.2179L0.315736 33.6162C0.191001 33.7306 0.0974494 33.8865 0.0454764 34.0529C0.0454764 34.0737 0.0350818 34.0841 0.0350818 34.1049C-0.0272858 34.344 -0.00649662 34.5832 0.0974494 34.7911C0.118239 34.8431 0.149422 34.8847 0.170212 34.9367C0.305341 35.1343 0.502839 35.2902 0.752309 35.363L4.31766 36.382L5.33633 39.9485C5.42988 40.2916 5.70014 40.5619 6.05355 40.6659L9.6189 41.6849L10.6376 45.2514C10.7103 45.5009 10.8663 45.6985 11.0741 45.8336C11.1157 45.8648 11.1573 45.8856 11.2093 45.9064C11.3444 45.9688 11.4899 46 11.6355 46C11.729 46 11.8226 45.9896 11.9265 45.9584C12.1136 45.9064 12.2695 45.8128 12.3943 45.6777L16.7912 41.2794L23.1007 34.9679C23.2254 35.0927 23.371 35.1759 23.5373 35.2278C23.9011 35.3318 24.2961 35.2382 24.5663 34.9679L32.0816 27.4503C32.487 27.0448 32.487 26.3897 32.0816 25.9842L31.9881 25.8906C32.4247 25.1731 32.6325 24.3517 32.6222 23.5303C33.7863 23.5511 34.9401 23.1144 35.8029 22.2514C36.6656 21.3883 37.1022 20.2342 37.0814 19.0696C38.2456 19.1008 39.3994 18.6537 40.2622 17.7907C41.1249 16.9277 41.5615 15.7735 41.5407 14.609C42.7049 14.6297 43.8587 14.193 44.7215 13.33C45.5426 12.5086 46 11.4064 46 10.2419C45.9688 9.0877 45.5218 7.98553 44.6903 7.1641ZM12.1344 42.9638L11.4484 40.5411C11.3548 40.198 11.0845 39.9277 10.7311 39.8237L7.16578 38.8151L6.14711 35.2486C6.05356 34.9055 5.7833 34.6352 5.42988 34.5312L3.00794 33.8449L5.42988 31.4222L14.5459 40.5411L12.1344 42.9638ZM24.4208 32.1501L21.9781 20.8476C21.8533 20.2862 21.3024 19.9326 20.7411 20.047C20.1798 20.1718 19.8264 20.7229 19.9407 21.2844L22.4043 32.6908L16.022 39.075L6.90591 29.9561L19.9927 16.8653L29.8468 26.7224L24.4208 32.1501ZM43.2246 11.8639C42.5282 12.5606 41.468 12.7373 40.5948 12.2902C40.1998 12.0927 39.7113 12.1655 39.3994 12.4878C39.0876 12.8101 39.0044 13.2884 39.2019 13.6835C39.6385 14.5674 39.4618 15.6279 38.7758 16.3142C38.0897 17.0005 37.0191 17.1876 36.1459 16.7405C35.7509 16.5429 35.2624 16.6157 34.9505 16.9381C34.6387 17.25 34.5555 17.7387 34.753 18.1338C35.1896 19.0176 35.0129 20.0782 34.3269 20.7645C33.6304 21.4611 32.5702 21.6379 31.697 21.1908C31.302 20.9932 30.8135 21.066 30.5017 21.3883C30.1898 21.7003 30.1067 22.189 30.3042 22.5841C30.5744 23.1352 30.616 23.7486 30.4289 24.3101L21.6662 15.5448C22.2276 15.368 22.8408 15.3992 23.3917 15.6695C23.7867 15.8671 24.2753 15.7943 24.5871 15.472C24.899 15.1496 24.9821 14.6713 24.7846 14.2762C24.348 13.3924 24.5248 12.3318 25.2108 11.6456C25.8968 10.9593 26.9675 10.7722 27.8406 11.2193C28.2356 11.4168 28.7242 11.344 29.036 11.0217C29.3479 10.7098 29.431 10.2211 29.2335 9.82595C28.7969 8.94213 28.9736 7.88155 29.6597 7.1953C30.3561 6.49864 31.4164 6.32188 32.2895 6.76899C32.6845 6.96655 33.1731 6.89376 33.4849 6.57143C33.7967 6.25949 33.8799 5.7708 33.6824 5.37568C33.2458 4.49186 33.4225 3.43128 34.1086 2.74503C34.5452 2.30832 35.1169 2.07957 35.7301 2.07957C36.3434 2.07957 36.9151 2.31872 37.3517 2.74503L43.2246 8.6302C43.6612 9.06691 43.8899 9.63879 43.8899 10.2523C43.8899 10.8553 43.6508 11.4376 43.2246 11.8639Z" />
  </symbol>

  <symbol id='icon-washing-powder' viewBox="0 0 32 32">
    <path
      d="M8.48126 11.45C8.74015 11.45 8.95001 11.2401 8.95001 10.9812C8.95001 10.7224 8.74015 10.5125 8.48126 10.5125C8.22238 10.5125 8.01251 10.7224 8.01251 10.9812C8.01251 11.2401 8.22238 11.45 8.48126 11.45Z" />
    <path
      d="M11.4875 11.45C11.7464 11.45 11.9562 11.2401 11.9562 10.9812C11.9562 10.7224 11.7464 10.5125 11.4875 10.5125C11.2286 10.5125 11.0187 10.7224 11.0187 10.9812C11.0187 11.2401 11.2286 11.45 11.4875 11.45Z" />
    <path
      d="M9.98126 13.4187C10.2401 13.4187 10.45 13.2089 10.45 12.95C10.45 12.6911 10.2401 12.4812 9.98126 12.4812C9.72238 12.4812 9.51251 12.6911 9.51251 12.95C9.51251 13.2089 9.72238 13.4187 9.98126 13.4187Z" />
    <path
      d="M12.9875 13.4187C13.2464 13.4187 13.4562 13.2089 13.4562 12.95C13.4562 12.6911 13.2464 12.4812 12.9875 12.4812C12.7286 12.4812 12.5187 12.6911 12.5187 12.95C12.5187 13.2089 12.7286 13.4187 12.9875 13.4187Z" />
    <path
      d="M3.9375 13.4187C4.19638 13.4187 4.40625 13.2089 4.40625 12.95C4.40625 12.6911 4.19638 12.4812 3.9375 12.4812C3.67862 12.4812 3.46875 12.6911 3.46875 12.95C3.46875 13.2089 3.67862 13.4187 3.9375 13.4187Z" />
    <path
      d="M6.97498 13.4187C7.23386 13.4187 7.44373 13.2089 7.44373 12.95C7.44373 12.6911 7.23386 12.4812 6.97498 12.4812C6.71609 12.4812 6.50623 12.6911 6.50623 12.95C6.50623 13.2089 6.71609 13.4187 6.97498 13.4187Z" />
    <path
      d="M9.98126 9.47499C10.2401 9.47499 10.45 9.26512 10.45 9.00624C10.45 8.74736 10.2401 8.53749 9.98126 8.53749C9.72238 8.53749 9.51251 8.74736 9.51251 9.00624C9.51251 9.26512 9.72238 9.47499 9.98126 9.47499Z" />
    <path
      d="M6.97498 9.47499C7.23386 9.47499 7.44373 9.26512 7.44373 9.00624C7.44373 8.74736 7.23386 8.53749 6.97498 8.53749C6.71609 8.53749 6.50623 8.74736 6.50623 9.00624C6.50623 9.26512 6.71609 9.47499 6.97498 9.47499Z" />
    <path
      d="M5.50623 11.45C5.76511 11.45 5.97497 11.2401 5.97497 10.9812C5.97497 10.7224 5.76511 10.5125 5.50623 10.5125C5.24734 10.5125 5.03748 10.7224 5.03748 10.9812C5.03748 11.2401 5.24734 11.45 5.50623 11.45Z" />
    <path
      d="M30.525 14.0188H26.0563C25.7938 14.0188 25.5875 14.2312 25.5875 14.4875C25.5875 14.75 25.8 14.9563 26.0563 14.9563H30.525C30.8188 14.9563 31.0563 15.1938 31.0563 15.4875V15.6438C31.0563 15.9062 30.8688 16.125 30.6125 16.1687L16.4188 18.5312C16.1938 18.5688 16.025 18.7625 16.025 18.9937V21.5C16.025 23.45 14.4375 25.0375 12.4875 25.0375H4.46875C2.51875 25.0375 0.93125 23.45 0.93125 21.5V14.9563H23.7438C24.0063 14.9563 24.2125 14.7438 24.2125 14.4875C24.2125 14.225 24 14.0188 23.7438 14.0188H16.8063C16.5375 13.375 15.8375 11.8063 14.7438 10.2125C12.8563 7.45625 10.6875 6 8.48125 6C6.275 6 4.1 7.45625 2.20625 10.2125C0.8125 12.2375 0.05625 14.2375 0.025 14.3188V14.325C0.01875 14.3375 0.01875 14.35 0.0125 14.3625C0.0125 14.3688 0.0125 14.3687 0.00625 14.375C0 14.3875 0 14.4 0 14.4187C0 14.425 0 14.425 0 14.4312C0 14.45 0 14.4688 0 14.4812V21.5C0 23.9688 2.00625 25.975 4.475 25.975H12.4938C14.9625 25.975 16.9688 23.9688 16.9688 21.5V19.3938L30.7688 17.0938C31.4813 16.975 32 16.3625 32 15.6438V15.4875C31.9938 14.675 31.3313 14.0188 30.525 14.0188ZM8.48125 6.9375C12.3125 6.9375 14.9688 12.1687 15.7938 14.0125H1.16875C1.9875 12.1687 4.64375 6.9375 8.48125 6.9375Z" />
  </symbol>

  <symbol id='icon-nut' viewBox="0 0 32 32">
    <path
      d="M25.8897 9.77338C25.7746 9.60552 25.5396 9.56715 25.3765 9.68225C25.2086 9.79736 25.1703 10.0324 25.2854 10.1954C26.5707 12.0228 27.2518 14.1235 27.2518 16.277C27.2518 19.0635 26.1055 21.759 24.0192 23.8741C22.446 25.4664 20.4221 26.6559 18.1679 27.3321C17.717 26.9676 17.4436 26.2434 17.3189 25.0492C17.7794 25.476 18.3933 25.7398 19.0647 25.7398C19.8465 25.7398 20.5803 25.3849 21.0647 24.7806C21.1271 24.7854 21.1894 24.7854 21.2518 24.7854C22.6667 24.7854 23.8225 23.6343 23.8225 22.2146C23.8225 21.9988 23.7986 21.7926 23.7458 21.5863C24.4221 21.3082 25.0216 20.8477 25.4628 20.2626C26 19.5528 26.283 18.7038 26.283 17.8118C26.283 16.9245 25.9952 16.0659 25.4676 15.3609C25.9808 14.8813 26.2782 14.205 26.2782 13.4856C26.2782 12.229 25.3861 11.1835 24.187 10.9628C24.1583 9.82134 23.3861 8.84772 22.3022 8.55036C21.9472 7.28417 20.7866 6.39209 19.4532 6.39209C18.7962 6.39209 18.1871 6.60791 17.6978 6.97242C17.9712 6.32494 18.3453 5.77818 18.7962 5.41847C20.9784 6.18106 22.9113 7.43285 24.3933 9.07314C24.5324 9.22662 24.7626 9.23621 24.9161 9.10192C25.0695 8.96763 25.0791 8.73261 24.9448 8.57914C22.7242 6.1283 19.5635 4.4976 16.048 4.0036C16.0144 3.9988 15.9808 3.9988 15.9424 4.0036C12.6523 4.46882 9.63549 5.94604 7.44844 8.16187C5.22302 10.4161 4 13.2986 4 16.277C4 19.2554 5.22302 22.1379 7.44844 24.3921C9.63549 26.6079 12.6523 28.0851 15.9472 28.5504C15.9664 28.5552 15.9808 28.5552 16 28.5552C16.0192 28.5552 16.0336 28.5552 16.0528 28.5504C19.3429 28.0851 22.3597 26.6079 24.5516 24.3921C26.7722 22.1379 28 19.2554 28 16.277C27.9904 13.9748 27.2662 11.7254 25.8897 9.77338ZM19.4532 7.13549C20.518 7.13549 21.4341 7.89329 21.6307 8.93405C21.6595 9.08273 21.7794 9.20264 21.9281 9.22662C22.7722 9.3753 23.3957 10.0803 23.4388 10.9341C22.8537 10.9916 22.307 11.2506 21.8849 11.6727C21.741 11.8165 21.741 12.0516 21.8849 12.1954C21.9568 12.2674 22.0528 12.3058 22.1439 12.3058C22.2398 12.3058 22.3309 12.2674 22.4029 12.1954C22.7482 11.8501 23.2086 11.6583 23.6978 11.6583C23.7074 11.6583 23.717 11.6583 23.7218 11.6535C23.741 11.6583 23.7554 11.6583 23.7746 11.6583C24.7578 11.7014 25.5252 12.5024 25.5252 13.4856C25.5252 13.994 25.3141 14.4688 24.9544 14.8141C24.211 14.1187 23.2326 13.735 22.2014 13.735C21.9952 13.735 21.8321 13.8981 21.8321 14.1043C21.8321 14.3106 21.9952 14.4736 22.2014 14.4736C23.0935 14.4736 23.9329 14.8189 24.5659 15.452C24.5851 15.4712 24.6043 15.4856 24.6235 15.5C24.6379 15.524 24.6523 15.5432 24.6667 15.5624C25.2326 16.1811 25.5396 16.9772 25.5396 17.8165C25.5396 18.5456 25.3094 19.241 24.8681 19.8261C24.5036 20.3058 24.0096 20.6847 23.458 20.9101C22.9976 20.1379 22.1679 19.6535 21.247 19.6535C20.5612 19.6535 19.9137 19.9221 19.4293 20.4065C19.2854 20.5504 19.2854 20.7854 19.4293 20.9293C19.5731 21.0731 19.8082 21.0731 19.952 20.9293C20.2974 20.5839 20.7578 20.3921 21.247 20.3921C21.9856 20.3921 22.6475 20.8285 22.9353 21.5096C23.0312 21.735 23.0791 21.9748 23.0791 22.2194C23.0791 23.1499 22.3837 23.9173 21.482 24.0324C21.5779 23.759 21.6307 23.4664 21.6307 23.1691C21.6307 22.9628 21.4676 22.7998 21.2614 22.7998C21.0552 22.7998 20.8921 22.9628 20.8921 23.1691C20.8921 23.5336 20.7866 23.8837 20.5851 24.1811C20.2446 24.6894 19.6739 24.9964 19.0647 24.9964C18.0576 24.9964 17.2326 24.1763 17.2326 23.1643C17.2326 22.6559 17.4388 22.1811 17.8082 21.8309C17.9472 21.7014 17.9616 21.4856 17.8465 21.3369C17.4436 20.8237 17.2326 20.205 17.2326 19.5528C17.2326 18.6511 17.6403 17.8165 18.3501 17.2602C18.3549 17.2554 18.3549 17.2554 18.3597 17.2506C18.8729 16.8525 19.4868 16.6415 20.1391 16.6415C20.3453 16.6415 20.5084 16.4784 20.5084 16.2722C20.5084 16.0659 20.3453 15.9029 20.1391 15.9029C19.4245 15.9029 18.7482 16.1043 18.1583 16.488C17.5731 15.8597 17.2374 15.0204 17.2374 14.1475C17.2374 13.2362 17.5923 12.3825 18.2302 11.735C18.2302 11.735 18.2302 11.7302 18.235 11.7302C18.8825 11.0779 19.7506 10.7134 20.6715 10.7134C20.8777 10.7134 21.0408 10.5504 21.0408 10.3441C21.0408 10.1379 20.8777 9.97482 20.6715 9.97482C19.6595 9.97482 18.7098 10.3297 17.952 10.982C17.5012 10.5647 17.2374 9.97482 17.2374 9.35132C17.2374 8.13309 18.2302 7.13549 19.4532 7.13549ZM4.73861 16.277C4.73861 13.4904 5.88489 10.795 7.97122 8.67986C9.39568 7.23621 11.1942 6.1235 13.1942 5.42326C13.6451 5.78297 14.024 6.32494 14.2926 6.97242C13.8034 6.61271 13.1942 6.39688 12.5372 6.39688C11.2038 6.39688 10.0432 7.28897 9.68825 8.55516C8.60432 8.85252 7.83213 9.82614 7.80336 10.9676C6.60432 11.193 5.71223 12.2386 5.71223 13.4904C5.71223 14.205 6.00959 14.8813 6.52278 15.3657C5.9952 16.0707 5.70743 16.9245 5.70743 17.8165C5.70743 17.9029 5.71223 17.994 5.71703 18.0803C5.73141 18.2818 5.90887 18.44 6.11031 18.4257C6.31175 18.4113 6.47002 18.2386 6.45564 18.0324C6.45084 17.9604 6.45084 17.8885 6.45084 17.8165C6.45084 16.982 6.76259 16.1811 7.32374 15.5624C7.34293 15.5432 7.35731 15.524 7.36691 15.5C7.38609 15.4856 7.40528 15.4712 7.42446 15.452C8.05755 14.8189 8.89688 14.4736 9.78897 14.4736C9.9952 14.4736 10.1583 14.3106 10.1583 14.1043C10.1583 13.8981 9.9952 13.735 9.78897 13.735C8.753 13.735 7.77938 14.1187 7.02158 14.8189C6.66187 14.4784 6.45084 13.9988 6.45084 13.4904C6.45084 12.5072 7.21823 11.7062 8.20144 11.6631C8.22062 11.6631 8.23501 11.6583 8.2542 11.6583C8.26379 11.6631 8.27338 11.6631 8.27818 11.6631C8.76739 11.6631 9.22782 11.8549 9.57314 12.2002C9.64508 12.2722 9.74101 12.3106 9.83213 12.3106C9.92806 12.3106 10.0192 12.2722 10.0911 12.2002C10.235 12.0564 10.235 11.8213 10.0911 11.6775C9.66906 11.2554 9.1223 10.9964 8.53717 10.9388C8.58034 10.0899 9.20384 9.3801 10.048 9.23141C10.2014 9.20743 10.3165 9.08753 10.3453 8.93885C10.5468 7.89808 11.4628 7.14029 12.5228 7.14029C13.7458 7.14029 14.7434 8.13789 14.7434 9.36091C14.7434 9.98441 14.4796 10.5695 14.0288 10.9916C13.271 10.3393 12.3213 9.98441 11.3094 9.98441C11.1031 9.98441 10.94 10.1475 10.94 10.3537C10.94 10.56 11.1031 10.723 11.3094 10.723C12.2302 10.723 13.0983 11.0827 13.7458 11.7398C13.7458 11.7398 13.7458 11.7446 13.7506 11.7446C14.3933 12.3921 14.7434 13.2506 14.7434 14.1571C14.7434 15.03 14.4077 15.8693 13.813 16.5024C13.223 16.1187 12.5468 15.9173 11.8321 15.9173C11.6259 15.9173 11.4628 16.0803 11.4628 16.2866C11.4628 16.4928 11.6259 16.6559 11.8321 16.6559C12.4844 16.6559 13.0983 16.8669 13.6115 17.265C13.6163 17.2698 13.6163 17.2698 13.6211 17.2746C14.3309 17.8309 14.7386 18.6655 14.7386 19.5671C14.7386 20.2194 14.5276 20.8381 14.1247 21.3513C14.0096 21.5 14.024 21.7158 14.1631 21.8453C14.5324 22.1954 14.7386 22.6703 14.7386 23.1787C14.7386 24.1859 13.9185 25.0108 12.9065 25.0108C12.2926 25.0108 11.7266 24.7038 11.3861 24.1954C11.1847 23.8933 11.0791 23.5432 11.0791 23.1835C11.0791 22.9772 10.9161 22.8141 10.7098 22.8141C10.5036 22.8141 10.3405 22.9772 10.3405 23.1835C10.3405 23.4808 10.3933 23.7734 10.4892 24.0468C9.59233 23.9317 8.89209 23.1643 8.89209 22.2338C8.89209 21.9892 8.94005 21.7494 9.03597 21.524C9.32374 20.8429 9.98561 20.4065 10.7242 20.4065C11.2134 20.4065 11.6739 20.5983 12.0192 20.9436C12.1631 21.0875 12.3981 21.0875 12.542 20.9436C12.6859 20.7998 12.6859 20.5647 12.542 20.4209C12.0576 19.9365 11.4101 19.6679 10.7242 19.6679C9.80815 19.6679 8.97362 20.1523 8.51319 20.9245C7.7554 20.6127 7.1271 20.0324 6.76259 19.2842C6.67146 19.1019 6.45084 19.0252 6.26858 19.1115C6.08633 19.2026 6.00959 19.4233 6.09592 19.6055C6.53717 20.512 7.29976 21.2266 8.22542 21.6055C8.17266 21.8118 8.14868 22.018 8.14868 22.2338C8.14868 23.6487 9.29976 24.8046 10.7194 24.8046C10.7818 24.8046 10.8441 24.8046 10.9065 24.7998C11.3909 25.4041 12.1247 25.759 12.9065 25.759C13.5827 25.759 14.1966 25.4952 14.6523 25.0683C14.5276 26.2626 14.2542 26.982 13.8034 27.3513C11.5492 26.6751 9.52518 25.4856 7.95204 23.8933C5.88969 21.759 4.73861 19.0635 4.73861 16.277ZM15.9952 27.8118C15.5348 27.7446 15.0839 27.6583 14.6379 27.5528C15.2422 26.7758 15.4964 25.4233 15.4964 23.1691C15.4964 22.5743 15.2854 21.994 14.9113 21.5384C15.295 20.9484 15.4964 20.2674 15.4964 19.5576C15.4964 18.5695 15.1031 17.6391 14.4077 16.958C15.1031 16.1954 15.4964 15.1882 15.4964 14.1475C15.4964 13.1787 15.1655 12.2578 14.5612 11.5144C15.1511 10.958 15.4964 10.1763 15.4964 9.35611C15.4964 8.42566 15.3141 7.5048 14.9736 6.68465C14.7194 6.08034 14.3933 5.56715 14.0096 5.16906C14.6571 4.98201 15.3237 4.84293 16 4.74221C16.6811 4.84293 17.3429 4.98201 17.9904 5.16906C17.6067 5.56715 17.2758 6.08513 17.0264 6.68465C16.6859 7.5048 16.5036 8.42566 16.5036 9.35611C16.5036 10.1763 16.8489 10.958 17.4388 11.5144C16.8345 12.2578 16.5036 13.1787 16.5036 14.1475C16.5036 15.1882 16.8969 16.1954 17.5923 16.958C16.8969 17.6391 16.5036 18.5695 16.5036 19.5576C16.5036 20.2722 16.705 20.9484 17.0887 21.5384C16.7146 21.994 16.5036 22.5743 16.5036 23.1691C16.5036 25.4185 16.7578 26.771 17.3621 27.5528C16.9065 27.6583 16.4556 27.7446 15.9952 27.8118Z" />
  </symbol>

  <symbol id="icon-grape" viewBox="0 0 32 32">
    <path
      d="M20.443 16.7139C22.6035 15.2251 22.0963 11.5147 19.5084 10.8008C19.3252 10.7491 18.5973 10.7773 18.508 10.6928C18.3624 10.5519 18.2732 9.88024 18.1605 9.67359C17.8364 9.07711 17.3198 8.59805 16.7139 8.30686C15.4458 7.69629 13.9147 7.9593 12.9706 9.01605C12.0595 7.78553 10.472 7.40979 9.10058 8.07202C8.49001 8.36322 7.96398 8.83758 7.62582 9.41997C7.45205 9.72055 7.32524 10.0446 7.25479 10.3875C7.17494 10.7961 7.27827 11.1718 7.24539 11.571C7.22191 11.8481 7.28766 11.7918 6.98708 11.9045C6.818 11.9703 6.65361 12.0501 6.49393 12.144C6.14637 12.3554 5.84578 12.6325 5.60156 12.9566C5.13659 13.5765 4.89706 14.3609 4.92054 15.1358C4.92993 15.4881 5.00038 15.8403 5.1225 16.1738C5.19295 16.3663 5.28688 16.5542 5.39021 16.7327C5.43717 16.8078 5.5452 16.9206 5.56868 16.9957C5.63913 17.2117 5.63913 17.038 5.5358 17.2446C5.33854 17.6298 4.9769 17.9069 4.80312 18.3296C4.62465 18.757 4.54011 19.2172 4.54481 19.6822C4.5495 20.119 4.63874 20.5511 4.80782 20.9503C4.88766 21.1429 5.01917 21.3072 5.10371 21.4951C5.17416 21.6501 5.23052 21.636 5.19295 21.7675C5.17416 21.8286 4.91115 22.0211 4.87357 22.0634C4.30058 22.6975 3.9953 23.5335 3.99999 24.3742C4.01408 26.1918 5.50762 27.7135 7.34872 27.6196C8.17533 27.5773 8.97377 27.211 9.54207 26.6051C9.62661 26.5159 9.85674 26.0791 9.95537 26.0462C10.0352 26.0227 10.4438 26.2341 10.5284 26.2575C10.9605 26.3703 11.416 26.3844 11.8575 26.3045C12.6794 26.1589 13.4309 25.6892 13.9194 25.0129C14.0556 24.8298 14.1307 24.5996 14.2622 24.4211C14.2951 24.3789 14.3186 24.2004 14.3609 24.1769C14.3796 24.1675 14.6661 24.2615 14.7272 24.2708C15.2063 24.3648 15.7088 24.3413 16.1832 24.2098C16.681 24.0689 17.146 23.8059 17.5264 23.4536C17.6297 23.355 17.9444 22.8478 18.0571 22.8055C18.1839 22.7632 18.6113 22.9511 18.7616 22.9699C19.7573 23.0779 20.7671 22.6834 21.4528 21.9601C22.9323 20.382 22.4203 17.6391 20.443 16.7139C20.5699 16.6247 20.6967 16.5401 20.8235 16.4509C20.6967 16.5401 20.5699 16.6247 20.443 16.7139ZM17.8035 13.3511C17.9209 13.2149 18.0383 13.0552 18.1182 12.8955C18.1464 12.8485 18.1699 12.8016 18.1933 12.7499C18.3061 12.5198 18.4 12.2849 18.4564 12.036C18.5362 11.6932 18.4657 11.6462 18.8039 11.6133C19.128 11.5851 19.5178 11.7448 19.7855 11.9045C20.3256 12.2286 20.6779 12.7922 20.8188 13.3981C20.955 13.9898 20.8939 14.638 20.6121 15.1781C20.4618 15.4693 20.2458 15.7229 19.9828 15.9155C19.8935 15.9812 19.1092 16.357 19.1092 16.2724C19.1092 16.2583 19.1092 16.2395 19.1092 16.2254C19.1139 16.1174 19.1092 16 19.0998 15.892C19.0998 15.8732 19.0951 15.8591 19.0951 15.8403C19.0951 15.8403 19.0951 15.8356 19.0951 15.8309C18.9965 14.8728 18.508 13.9945 17.7143 13.4403C17.7472 13.4168 17.7753 13.384 17.8035 13.3511C17.8176 13.337 17.7753 13.384 17.8035 13.3511C17.9209 13.2149 17.7753 13.384 17.8035 13.3511ZM17.7378 14.746C17.7472 14.7554 17.7519 14.7648 17.7565 14.7742C17.874 14.9386 17.9632 15.117 18.0383 15.3002C18.0477 15.3237 18.0524 15.3425 18.0618 15.366C18.0665 15.3753 18.0665 15.3847 18.0712 15.3941C18.0759 15.4082 18.0806 15.4223 18.0853 15.4364C18.137 15.5867 18.1605 15.7464 18.1839 15.9014C18.1839 15.9249 18.1886 15.9436 18.1886 15.9671C18.1886 15.9765 18.1886 15.9906 18.1933 16C18.1933 16.0235 18.198 16.0423 18.198 16.0658C18.198 16.0705 18.198 16.0752 18.198 16.0799C18.2074 16.2818 18.2027 16.5213 18.137 16.7139C18.1323 16.7327 18.1323 16.7515 18.1276 16.7656C17.7941 17.5734 17.2775 18.292 16.371 18.4845C15.8074 18.6067 15.1264 18.5033 14.6567 18.1511C14.6192 18.1276 14.5816 18.0994 14.5487 18.0759C13.5859 17.3433 13.4074 16.0235 13.9804 14.9902C14.5722 13.9194 15.6524 13.6047 16.7702 13.9804C16.7937 13.9898 16.8172 14.0039 16.8407 14.0133C16.8642 14.0227 16.8877 14.0368 16.9111 14.0462C16.9158 14.0462 16.9205 14.0509 16.9252 14.0509C16.991 14.0838 17.0567 14.1213 17.1178 14.1636C17.1742 14.2012 17.2305 14.2388 17.2869 14.281C17.3385 14.3186 17.3855 14.3609 17.4325 14.4078C17.4419 14.4172 17.4513 14.4219 17.456 14.4313C17.5217 14.483 17.7143 14.7178 17.7378 14.746C17.7425 14.7554 17.7096 14.7084 17.7378 14.746ZM12.8156 15.2532C12.7875 15.3566 12.764 15.4646 12.7452 15.5679C12.0783 15.5867 11.4912 15.2908 11.0309 14.8258C10.7444 14.5112 10.5472 14.126 10.4579 13.708C10.0211 12.562 11.0826 11.1718 12.1487 10.9041C12.0266 12.0736 12.5667 13.2712 13.5295 13.9523C13.1961 14.328 12.9519 14.7789 12.8156 15.2579C12.8344 15.1922 12.8532 15.1264 12.872 15.056C12.8532 15.1264 12.8344 15.1875 12.8156 15.2532C12.7875 15.3566 12.9519 14.7695 12.8156 15.2532ZM13.4967 18.3436C12.9659 18.7194 12.4869 19.3018 12.3037 19.9358C12.2286 19.917 12.1534 19.8982 12.0783 19.8701C11.8669 19.7996 11.6368 19.7855 11.416 19.7808C11.3268 19.7808 11.2376 19.7808 11.1483 19.7855C11.0779 19.7996 11.0121 19.8043 10.9417 19.8043C10.8853 19.809 10.829 19.8137 10.7773 19.8278C10.7726 19.8278 10.7679 19.8278 10.7679 19.8278C10.7444 19.8372 10.7209 19.8419 10.6974 19.8419C9.93189 19.4239 9.42465 18.5597 9.46692 17.6814V17.6767C9.46692 17.6532 9.46692 17.6298 9.47162 17.6063C9.47162 17.6016 9.47162 17.6016 9.47162 17.5969C9.47162 17.5781 9.47631 17.5593 9.47631 17.5452V17.5405C9.48101 17.4748 9.48571 17.3855 9.50449 17.3198C9.51858 17.2305 9.54207 17.1413 9.56555 17.0568C9.56555 17.0521 9.56555 17.0521 9.57025 17.0474C9.57025 17.0427 9.57494 17.038 9.57494 17.0333C9.62191 16.8736 9.69236 16.7327 9.76281 16.5824C9.80038 16.5166 9.83796 16.4509 9.88492 16.3851C10.007 16.1973 10.162 16.0282 10.3405 15.8873C10.3922 15.8356 10.4438 15.7934 10.5096 15.7605C10.5284 15.7464 10.5472 15.7323 10.5659 15.7229C10.58 15.7135 10.5941 15.7041 10.6082 15.6994C11.1859 16.2114 11.9233 16.4932 12.6935 16.4932H12.7076C12.7217 16.6716 12.7405 16.9299 12.825 17.0943C12.8344 17.1272 12.8438 17.1601 12.8579 17.1977C12.8579 17.2024 12.8626 17.2024 12.8626 17.2071C12.872 17.2399 12.8861 17.2728 12.8955 17.3104C13.027 17.6861 13.2337 18.0384 13.4967 18.3436ZM13.337 10.0963C13.337 10.0916 13.3417 10.0869 13.3417 10.0822V10.0775C14.4595 8.02975 17.6016 8.9456 17.6297 11.2141C17.6297 11.2188 17.6297 11.2235 17.6297 11.2282V11.2329C17.6297 11.7777 17.4419 12.3037 17.1131 12.7311C17.1084 12.7358 17.1084 12.7358 17.1037 12.7405C17.0286 12.8391 16.9393 12.9284 16.8501 13.0129C16.2301 12.811 15.3753 12.7734 14.7742 13.074C14.6849 13.1069 14.3421 13.3276 14.2669 13.3229C14.1448 13.3182 13.9569 13.1163 13.8724 13.0458C13.6 12.8157 13.3839 12.5198 13.243 12.191C13.243 12.1863 13.2383 12.1816 13.2383 12.1816C12.9565 11.5147 13.0223 10.6599 13.3182 10.1151C13.2947 10.1714 13.2994 10.162 13.337 10.0963C13.337 10.0916 13.2665 10.2278 13.337 10.0963ZM10.411 8.64032C11.2517 8.64032 12.0219 9.11938 12.4211 9.87085C12.4164 9.88024 12.4164 9.88494 12.4117 9.89433C12.407 9.90373 12.4023 9.91781 12.3976 9.92721C10.7585 10.0822 9.50449 11.5476 9.48101 13.1726C9.29314 13.0928 9.10997 12.9753 8.95498 12.8391C8.9362 12.8251 8.92211 12.811 8.90332 12.7969C7.21252 11.5241 8.40547 8.64032 10.411 8.64032ZM7.63991 12.6795C7.64461 12.6842 7.64461 12.6889 7.64931 12.6935C7.70567 12.7922 7.79021 12.9472 7.87475 13.0317C7.88884 13.0505 7.89823 13.0646 7.91232 13.0834C7.92171 13.0928 7.93111 13.1069 7.9405 13.1163C7.95459 13.1303 7.96398 13.1491 7.97807 13.1632C8.227 13.4638 8.55577 13.7503 8.91271 13.9241C9.10058 14.0227 9.48101 14.0697 9.62661 14.2012C9.7769 14.3327 9.87553 14.8071 9.99295 14.9949C9.83326 15.0935 9.67827 15.2204 9.54676 15.3566C9.53737 15.3613 9.53267 15.3707 9.52328 15.3753C9.50919 15.3894 9.4998 15.3988 9.48571 15.4129C9.26966 15.629 9.09119 15.8779 8.94089 16.1503C8.94089 16.155 8.9362 16.1597 8.9362 16.1597C8.88923 16.1973 8.86575 16.2442 8.86575 16.2959C8.85635 16.3194 8.84226 16.3429 8.83287 16.3663C8.83287 16.3663 8.83287 16.3663 8.83287 16.371C8.79999 16.4415 8.77181 16.5166 8.74363 16.5918C8.72015 16.6528 8.69197 16.7186 8.68258 16.7844C8.67788 16.8031 8.67318 16.8219 8.66849 16.8407C8.66379 16.8595 8.65909 16.8783 8.6544 16.8971C8.6544 16.9018 8.6497 16.9112 8.6497 16.9159C8.645 16.9299 8.64031 16.944 8.64031 16.9581C8.64031 16.9628 8.64031 16.9628 8.64031 16.9675C8.61682 17.0708 8.60743 17.1789 8.57925 17.2822C8.57925 17.2869 8.57925 17.2869 8.57925 17.2869V17.2916C8.57925 17.2963 8.57925 17.301 8.57925 17.301V17.3104C8.55577 17.3151 8.52759 17.3198 8.5041 17.3245C8.32563 17.3526 8.13306 17.3667 7.94989 17.348H7.9452C7.92171 17.348 7.90293 17.3433 7.87944 17.3433C7.87475 17.3433 7.87005 17.3433 7.86535 17.3433C7.67749 17.3198 7.48962 17.2728 7.31115 17.2024C7.22661 17.1695 7.14676 17.1319 7.06692 17.0896C7.02465 17.0615 6.98238 17.038 6.94011 17.0192C6.91663 17.0051 6.89314 16.991 6.86966 16.9722C6.85087 16.9581 6.83209 16.9487 6.818 16.9346C6.818 16.9346 6.818 16.9346 6.8133 16.9346C6.76633 16.8971 6.72406 16.8642 6.6771 16.8266C5.23991 15.629 5.78473 13.0834 7.63991 12.6795C7.63052 12.6654 7.236 12.7687 7.17964 12.7828C7.33463 12.7405 7.48962 12.7123 7.63991 12.6795C7.64461 12.6842 6.60195 12.9049 7.63991 12.6795ZM6.36242 17.7519C6.52211 17.8599 6.83678 18.09 7.03404 18.09C7.31584 18.1934 7.63052 18.2638 7.93111 18.2779C8.0814 18.2873 8.25987 18.3014 8.41017 18.2685C8.52289 18.198 8.57925 18.1934 8.57925 18.2497C8.6544 18.7335 8.83757 19.3206 9.16633 19.6963C9.31193 19.8982 9.47631 20.0814 9.66418 20.2458L9.66888 20.2505C9.19921 20.5417 8.30684 21.3119 8.30684 21.9319C8.19882 21.9601 8.0814 21.9836 7.96868 21.993C7.95929 21.993 7.94989 21.993 7.9405 21.9977C5.6861 22.2043 4.62935 19.1139 6.36242 17.7519C6.36712 17.7566 6.15107 17.9773 6.11819 17.9538C6.11819 17.9538 6.43287 17.7002 6.36242 17.7519C6.44226 17.8035 5.79882 18.198 6.36242 17.7519ZM7.19843 26.7178C6.01017 26.7178 5.09901 25.7738 4.95811 24.6231C4.89236 24.083 4.99569 23.5241 5.28218 23.0591C5.3996 22.8665 5.61565 22.5237 5.83639 22.4485C6.09471 22.3593 6.57377 22.6975 6.87905 22.8008C7.21721 22.8994 7.58825 22.9511 7.9405 22.9182C8.00156 22.9135 8.05792 22.9088 8.11897 22.9041C8.09549 23.3033 8.14715 23.7354 8.28336 24.1112C8.33502 24.2755 8.39608 24.454 8.48532 24.5996C8.60743 24.8391 8.76242 25.0928 8.95498 25.2853C9.18982 25.5577 9.218 25.5436 8.98316 25.8442C8.84696 26.018 8.69197 26.1683 8.51349 26.2951C8.12837 26.5722 7.66809 26.7178 7.19843 26.7178ZM13.5859 23.4677C13.5859 23.4724 13.5859 23.4724 13.5859 23.4677C13.2947 25.2478 11.1061 26.0556 9.78629 24.7969C9.19451 24.2286 8.84696 23.3926 9.06301 22.58C9.26966 21.8145 9.89901 20.9033 10.7585 20.7765C11.1859 20.6638 12.0501 20.6262 12.3976 20.9738C12.3976 20.9738 12.3976 20.9738 12.4023 20.9738C13.2853 21.4575 13.7409 22.5566 13.5906 23.4348C13.5953 23.3926 13.5953 23.402 13.5859 23.4677C13.5859 23.4724 13.6047 23.3409 13.5859 23.4677ZM15.3331 23.4161C15.0607 23.4161 14.7882 23.3644 14.5346 23.2658C14.544 23.139 14.5487 22.9934 14.5346 22.8665C14.5252 22.7303 14.5064 22.5941 14.483 22.4579C14.4783 22.4298 14.4736 22.4016 14.4642 22.3734C14.4642 22.3734 14.4642 22.3734 14.4642 22.3687C14.4595 22.3452 14.4548 22.317 14.4454 22.2935C14.4454 22.2889 14.4454 22.2889 14.4454 22.2889C14.328 21.8568 14.0931 21.1194 13.6939 20.8517C13.6751 20.8282 13.6564 20.8094 13.6376 20.7906C13.6282 20.7812 13.6188 20.7671 13.6094 20.7577C13.4685 20.6074 13.3088 20.4759 13.1444 20.3585C13.1444 20.3538 13.1491 20.3491 13.1491 20.3444C13.1538 20.3303 13.1585 20.3162 13.1632 20.3022C13.2055 20.1613 13.2712 20.011 13.3464 19.8795C13.4497 19.6822 13.5859 19.499 13.7456 19.344C13.7597 19.3299 13.7691 19.3206 13.7832 19.3065C13.7973 19.2924 13.8066 19.283 13.8207 19.2736C13.8301 19.2642 13.8395 19.2548 13.8536 19.2454C13.8583 19.2407 13.863 19.236 13.8724 19.2313C13.8818 19.2219 13.8959 19.2125 13.9053 19.2031C14.0039 19.1139 14.1213 19.0388 14.2387 18.973C14.746 19.2924 15.319 19.4521 15.9201 19.4521C15.9201 19.4568 15.9201 19.4662 15.9201 19.4708C15.892 19.9405 15.9577 20.4102 16.1174 20.8517C16.2066 21.0959 16.4509 21.744 16.7092 21.8755C16.7139 21.8849 16.7233 21.8943 16.7327 21.899C16.7468 21.9178 16.7609 21.9319 16.7749 21.946C16.8689 22.0493 16.9675 22.148 17.0755 22.2372C17.2775 22.3076 17.2916 22.4016 17.1272 22.5237C17.0567 22.6975 16.7984 22.8712 16.6528 22.9793C16.263 23.2611 15.8074 23.4161 15.3331 23.4161ZM19.1139 22.0775C17.6861 22.0775 16.6387 20.6826 16.8548 19.3112C17.2728 19.1797 17.8035 18.9354 18.0806 18.5832C18.1135 18.5503 18.1464 18.5221 18.1746 18.4892C18.1792 18.4845 18.1839 18.4799 18.1886 18.4752C18.2309 18.4329 18.2732 18.3859 18.3108 18.3389C18.3248 18.3249 18.3342 18.3108 18.3483 18.2967C18.353 18.292 18.3577 18.2873 18.3624 18.2779C18.4329 18.1934 18.5268 18.0806 18.5785 17.982C18.6959 17.7988 18.8039 17.6016 18.8791 17.3996C18.8837 17.3855 18.8884 17.3761 18.8931 17.362C20.2035 17.2352 21.3495 18.3436 21.3965 19.6305C21.4434 20.8939 20.4149 22.0775 19.1139 22.0775Z" />
    <path
      d="M24.4446 10.7491C24.191 10.7491 23.9843 10.5425 23.9843 10.2888C23.9843 10.0352 24.191 9.82856 24.4446 9.82856C24.6982 9.82856 24.9049 10.0352 24.9049 10.2888C24.9049 10.5425 24.6982 10.7491 24.4446 10.7491Z" />
    <path
      d="M27.8027 11.8388C27.3894 10.1386 26.1542 8.68729 24.1252 7.51782C24.4164 7.07633 25.9241 4.18788 24.8532 4.0094C24.2004 3.90138 24.2051 5.03798 24.083 5.43719C23.8763 6.11821 23.571 6.77105 23.1295 7.33465C22.2747 8.45715 20.8517 9.0912 19.4567 9.0912C19.0622 9.06772 18.8227 9.56557 19.0857 9.86146C19.2689 10.0634 19.5789 10.0211 19.8278 10.0071C20.7295 9.9507 21.636 9.6642 22.4063 9.19453C21.5186 12.4916 23.7025 14.9573 26.3045 16.6247C26.3092 16.6294 26.3139 16.6294 26.3186 16.6341C26.3937 16.681 26.5017 16.7045 26.591 16.6951C26.5957 16.6951 26.6051 16.6951 26.6145 16.6904C26.6333 16.6904 26.6473 16.6857 26.6661 16.681C26.6943 16.6763 26.7225 16.6622 26.7507 16.6528C26.7554 16.6528 26.7554 16.6482 26.7601 16.6482C26.7648 16.6482 26.7648 16.6435 26.7695 16.6435C26.8352 16.6106 26.8916 16.5636 26.9338 16.5026C26.9338 16.5026 26.9385 16.4979 26.9385 16.4932C26.9902 16.4086 28.4086 14.3327 27.8027 11.8388C27.3894 10.1386 28.4086 14.3327 27.8027 11.8388ZM26.652 15.0043C26.4078 14.22 26.1589 13.4356 25.8912 12.656C25.7644 12.2802 25.6047 11.3644 25.1115 11.308C24.3084 11.2188 24.7452 12.1769 24.8767 12.5433C25.1773 13.3793 25.4403 14.2341 25.708 15.0795C24.67 14.2763 23.6791 13.2665 23.2845 11.9844C22.8994 10.7444 23.2094 9.49512 23.6744 8.32565C26.1166 9.73465 27.7652 12.1393 26.652 15.0043C26.2669 13.7785 26.652 15.0043 26.652 15.0043Z" />
  </symbol>

  <symbol id="icon-almond" viewBox="0 0 32 32">
    <path
      d="M15.268 23.1941C15.0196 23.1191 14.7571 23.2597 14.6868 23.5081C14.0634 25.5986 12.0995 27.061 9.91524 27.061C7.16855 27.0563 4.93744 24.8252 4.93744 22.0832C4.93744 18.4038 6.23111 14.8181 8.58408 11.987L9.37621 11.0355C9.50746 10.8761 9.70432 10.7824 9.91056 10.7824C10.1168 10.7824 10.3137 10.8761 10.4449 11.0355L11.237 11.987C13.0322 14.1478 14.2228 16.7539 14.6774 19.524C14.7196 19.7771 14.9587 19.9505 15.2165 19.9083C15.4696 19.8662 15.643 19.6271 15.6008 19.3693C15.118 16.4351 13.8572 13.6744 11.9589 11.387L11.1714 10.4308C10.8621 10.0559 10.4027 9.84025 9.91524 9.84025C9.42777 9.84025 8.96843 10.0559 8.65907 10.4308L7.86694 11.3823C5.37335 14.3821 4 18.1835 4 22.0832C4 25.3455 6.65295 27.9984 9.91524 27.9984C11.2136 27.9984 12.4463 27.586 13.4822 26.8032C14.4806 26.0486 15.2305 24.9705 15.5868 23.78C15.6571 23.5269 15.5164 23.2644 15.268 23.1941Z" />
    <path
      d="M9.69026 15.8539C9.46059 15.9758 9.37622 16.2617 9.49808 16.4867C10.2715 17.9257 10.7449 19.5474 10.8714 21.1739C10.8902 21.4176 11.0964 21.6051 11.3402 21.6051C11.3542 21.6051 11.3636 21.6051 11.3776 21.6051C11.6354 21.5864 11.8276 21.3614 11.8089 21.1036C11.6729 19.3224 11.1714 17.621 10.3277 16.0461C10.2059 15.8164 9.91993 15.7321 9.69026 15.8539Z" />
    <path
      d="M9.91524 24.0143C10.173 24.0143 10.384 23.8034 10.384 23.5456C10.384 23.2878 10.173 23.0769 9.91524 23.0769C9.36684 23.0769 8.91687 22.6316 8.91687 22.0785C8.91687 21.4926 8.95906 20.902 9.04811 20.3255C9.08561 20.0677 8.91218 19.8287 8.65439 19.7912C8.39659 19.7537 8.15754 19.9271 8.12005 20.1849C8.0263 20.8083 7.97943 21.4457 7.97943 22.0785C7.97943 23.1472 8.84656 24.0143 9.91524 24.0143Z" />
    <path
      d="M9.91525 26.0064C12.0807 26.0064 13.8384 24.244 13.8384 22.0832C13.8384 21.8254 13.6275 21.6145 13.3697 21.6145C13.1119 21.6145 12.901 21.8254 12.901 22.0832C12.901 23.7284 11.5605 25.069 9.91525 25.069C9.65745 25.069 9.44653 25.2799 9.44653 25.5377C9.44653 25.7955 9.65745 26.0064 9.91525 26.0064Z" />
    <path
      d="M12.9713 19.2053C13.0088 19.2053 13.0463 19.2006 13.0838 19.1912C13.3369 19.1303 13.4916 18.8772 13.4306 18.6241C13.1072 17.2835 12.5963 15.9945 11.9167 14.7946C11.7901 14.5696 11.5042 14.4899 11.2792 14.6165C11.0542 14.7431 10.9746 15.029 11.1011 15.254C11.7386 16.3789 12.2167 17.5835 12.5213 18.8397C12.5682 19.06 12.7604 19.2053 12.9713 19.2053Z" />
    <path
      d="M8.11067 15.404C7.87631 15.2915 7.59977 15.3852 7.48259 15.6196C6.50765 17.6257 5.99206 19.8568 5.99206 22.0785C5.99206 22.3363 6.20298 22.5472 6.46078 22.5472C6.71857 22.5472 6.9295 22.3363 6.9295 22.0785C6.9295 19.9974 7.41228 17.9069 8.32628 16.032C8.43877 15.7977 8.34034 15.5211 8.11067 15.404Z" />
    <path
      d="M27.9938 17.2601L27.8813 16.0273C27.525 12.1463 25.8095 8.49033 23.0535 5.72958C20.7474 3.42347 16.9976 3.42347 14.6915 5.72958C12.3854 8.03568 12.3854 11.7854 14.6915 14.0915C17.4476 16.8476 21.1036 18.5631 24.9893 18.924L26.222 19.0365C26.2736 19.0412 26.3251 19.0412 26.372 19.0412C26.8032 19.0412 27.2157 18.8725 27.525 18.5631C27.8625 18.221 28.0359 17.7429 27.9938 17.2601ZM26.8548 17.9022C26.7095 18.0475 26.5032 18.1225 26.297 18.1038L25.0643 17.9913C21.3989 17.6538 17.9491 16.032 15.3477 13.4306C13.4072 11.4901 13.4072 8.33097 15.3477 6.39047C16.2898 5.44834 17.5366 4.93275 18.8678 4.93275C20.199 4.93275 21.4457 5.44834 22.3879 6.39047C24.9893 8.99187 26.611 12.4463 26.9485 16.107L27.061 17.3398C27.0751 17.5507 27.0048 17.7569 26.8548 17.9022Z" />
    <path
      d="M18.8631 8.91687C19.1303 8.91687 19.3787 9.01999 19.5662 9.20748C19.9787 9.61995 20.3677 10.0699 20.7145 10.5386C20.8083 10.6652 20.9489 10.7308 21.0942 10.7308C21.1926 10.7308 21.2864 10.7027 21.3708 10.6371C21.577 10.4824 21.6239 10.1918 21.4692 9.98086C21.0942 9.46996 20.677 8.98718 20.2318 8.54189C19.8662 8.17629 19.3834 7.97474 18.8631 7.97474C18.3475 7.97474 17.86 8.17629 17.4944 8.54189C17.3116 8.72469 17.3116 9.01999 17.4944 9.20279C17.6772 9.38559 17.9725 9.38559 18.1553 9.20279C18.3475 9.01999 18.6006 8.91687 18.8631 8.91687Z" />
    <path
      d="M23.1144 13.5759C21.5489 13.1025 20.0677 12.2917 18.8256 11.2323C18.6287 11.0636 18.3334 11.087 18.1647 11.2839C17.996 11.4808 18.0194 11.7761 18.2163 11.9448C19.5709 13.1072 21.127 13.9556 22.8425 14.4759C22.8894 14.4899 22.9316 14.4946 22.9785 14.4946C23.18 14.4946 23.3675 14.3634 23.4284 14.1618C23.4987 13.9087 23.3581 13.6509 23.1144 13.5759Z" />
    <path
      d="M21.6379 7.13573C21.4551 6.95293 21.1598 6.95293 20.977 7.13573C20.7942 7.31854 20.7942 7.61383 20.977 7.79663C22.4488 9.26841 23.5831 11.087 24.2674 13.0604C24.3331 13.2525 24.5159 13.3744 24.7127 13.3744C24.7643 13.3744 24.8158 13.365 24.8674 13.3463C25.1111 13.2619 25.2424 12.9947 25.158 12.751C24.4268 10.6511 23.2128 8.70595 21.6379 7.13573Z" />
    <path
      d="M22.8566 15.5727C21.6098 15.2305 20.4193 14.7149 19.3178 14.04C19.0975 13.904 18.8069 13.9744 18.6756 14.1947C18.5397 14.415 18.61 14.7056 18.8303 14.8368C20.0068 15.5586 21.2817 16.107 22.6082 16.4726C22.6504 16.482 22.6925 16.4914 22.7347 16.4914C22.941 16.4914 23.1285 16.3555 23.1847 16.1492C23.2503 15.8961 23.105 15.6383 22.8566 15.5727Z" />
    <path
      d="M16.7539 7.13573C16.5711 6.95293 16.2758 6.95293 16.093 7.13573C14.5649 8.66376 14.5649 11.1574 16.093 12.6854C16.1867 12.7791 16.3039 12.8213 16.4258 12.8213C16.5476 12.8213 16.6648 12.7744 16.7585 12.6854C16.9413 12.5026 16.9413 12.2073 16.7585 12.0245C15.5961 10.8621 15.5961 8.96374 16.7585 7.80132C16.9367 7.61852 16.9367 7.31854 16.7539 7.13573Z" />
    <path
      d="M15.3524 21.0755C15.2305 21.0755 15.1087 21.127 15.0196 21.2114C14.9305 21.3004 14.8837 21.4176 14.8837 21.5442C14.8837 21.666 14.9352 21.7879 15.0196 21.877C15.1087 21.966 15.2258 22.0129 15.3524 22.0129C15.4789 22.0129 15.5961 21.9613 15.6852 21.877C15.7742 21.7879 15.8211 21.6707 15.8211 21.5442C15.8211 21.4176 15.7696 21.3004 15.6852 21.2114C15.5961 21.1223 15.4743 21.0755 15.3524 21.0755Z" />
  </symbol>

  <symbol id="icon-beans" viewBox="0 0 32 32">
    <path
      d="M15.3672 10.0563C15.2031 9.85 14.9031 9.81719 14.6969 9.98125C14.4484 10.1781 14.1531 10.2859 13.8344 10.2859C13.5156 10.2859 13.2203 10.1828 12.9719 9.98125C12.7656 9.81719 12.4656 9.85 12.3016 10.0563C12.1375 10.2625 12.1703 10.5625 12.3766 10.7266C12.7891 11.0594 13.3094 11.2375 13.8391 11.2375C14.3688 11.2375 14.8891 11.0547 15.3016 10.7266C15.4984 10.5625 15.5313 10.2625 15.3672 10.0563Z" />
    <path
      d="M27.6531 16.8016C27.2687 15.7469 26.6031 14.8422 25.7265 14.1859C25.1031 13.7219 24.3953 13.4031 23.6312 13.2391C23.7953 11.7344 23.3265 10.1734 22.3469 8.9875C21.2875 7.70781 19.764 7 18.0578 7H17.7812C16.5859 7 15.4281 7.42188 14.4297 8.22344C14.2562 8.35938 14.05 8.43438 13.8297 8.43438C13.6094 8.43438 13.4031 8.35938 13.2297 8.22344C12.2359 7.42188 11.0781 7 9.88281 7H9.60624C8.37343 7 7.22031 7.375 6.27343 8.07813C5.39218 8.73438 4.72656 9.63438 4.34687 10.6938C3.96718 11.7438 3.89687 12.8594 4.15468 13.9188C4.42656 15.0625 5.06875 16.0797 6.01093 16.8672C6.72812 17.4672 7.51562 17.9828 8.34999 18.4C8.31718 18.9484 8.36406 19.4922 8.49062 20.0266C8.76249 21.1703 9.40468 22.1875 10.3469 22.975C12.5359 24.8031 15.3156 25.8063 18.1703 25.8063C21.025 25.8063 23.8047 24.7984 25.9937 22.975C26.9359 22.1875 27.5781 21.1703 27.85 20.0266C28.1031 18.9672 28.0375 17.8516 27.6531 16.8016ZM8.49999 17.4016C7.83437 17.0453 7.20624 16.6188 6.62031 16.1313C4.79218 14.6078 4.7125 12.4891 5.24218 11.0172C5.77656 9.53594 7.20624 7.95625 9.60156 7.95625H9.87812C10.8531 7.95625 11.8047 8.30781 12.6297 8.96875C12.9672 9.24063 13.3937 9.39063 13.825 9.39063C14.2562 9.39063 14.6828 9.24063 15.0203 8.96875C15.8453 8.30313 16.7969 7.95625 17.7719 7.95625H18.0484C19.4641 7.95625 20.725 8.5375 21.6015 9.59688C22.4172 10.5813 22.8015 11.8703 22.675 13.1125C22.5812 13.1078 22.4828 13.1031 22.3844 13.1031H22.1078C20.9125 13.1031 19.7547 13.525 18.7562 14.3266C18.5828 14.4625 18.3766 14.5375 18.1562 14.5375C17.9359 14.5375 17.7297 14.4625 17.5562 14.3266C16.5578 13.525 15.4 13.1031 14.2047 13.1031H13.9281C12.6953 13.1031 11.5469 13.4781 10.5953 14.1813C9.71406 14.8375 9.04843 15.7375 8.66874 16.7969C8.60781 16.9984 8.54687 17.2 8.49999 17.4016ZM25.3797 22.2391C23.364 23.9219 20.8 24.85 18.1703 24.85C15.5406 24.85 12.9719 23.9219 10.9562 22.2391C9.12812 20.7156 9.04843 18.5969 9.57812 17.125C10.1125 15.6438 11.5422 14.0641 13.9375 14.0641H14.2141C15.1891 14.0641 16.1406 14.4156 16.9656 15.0766C17.3031 15.3484 17.7297 15.4984 18.1609 15.4984C18.5922 15.4984 19.0187 15.3484 19.3562 15.0766C20.1812 14.4109 21.1328 14.0641 22.1078 14.0641H22.3844C24.7797 14.0641 26.2094 15.6484 26.7437 17.125C27.2875 18.5969 27.2078 20.7156 25.3797 22.2391Z" />
    <path
      d="M19.6234 16.0984C19.4594 15.8922 19.1594 15.8594 18.9531 16.0234C18.7047 16.2203 18.4094 16.3281 18.0906 16.3281C17.7719 16.3281 17.4766 16.225 17.2281 16.0234C17.0219 15.8594 16.7219 15.8922 16.5578 16.0984C16.3937 16.3047 16.4266 16.6047 16.6328 16.7688C17.0453 17.1016 17.5656 17.2797 18.0953 17.2797C18.625 17.2797 19.1453 17.0969 19.5578 16.7688C19.7594 16.6047 19.7922 16.3047 19.6234 16.0984Z" />
    <path
      d="M23.3172 22.4453C23.1953 22.2109 22.9094 22.1172 22.675 22.2391C21.2734 22.9563 19.7594 23.3219 18.1703 23.3219C17.9078 23.3219 17.6922 23.5375 17.6922 23.8C17.6922 24.0625 17.9078 24.2781 18.1703 24.2781C19.9094 24.2781 21.5734 23.8797 23.1109 23.0875C23.3453 22.9703 23.4344 22.6797 23.3172 22.4453Z" />
    <path
      d="M25.1688 21.0953C25 20.8938 24.7 20.8656 24.4938 21.0344C24.3813 21.1281 24.2688 21.2172 24.1563 21.3063C23.9453 21.4656 23.9078 21.7656 24.0672 21.9766C24.1609 22.0984 24.3016 22.1641 24.4469 22.1641C24.55 22.1641 24.6484 22.1312 24.7375 22.0656C24.8641 21.9719 24.9859 21.8688 25.1078 21.7703C25.3094 21.5969 25.3375 21.2969 25.1688 21.0953Z" />
  </symbol>

  <symbol id="icon-apitherapy" viewBox="0 0 32 32">
    <path
      d="M4.18761 25.5505C7.66777 27.7268 7.43795 27.6142 7.60211 27.6142C7.76627 27.6142 7.5599 27.708 10.8056 25.6865C14.0559 27.7174 13.8495 27.6142 14.009 27.6142C14.1685 27.6142 14.009 27.6846 16.6261 26.0477C16.8138 25.9304 16.87 25.6818 16.7528 25.4942C16.6355 25.3066 16.3869 25.2503 16.1993 25.3676L14.0043 26.7418L11.2042 24.9924V22.2345L12.6676 21.3199C12.8552 21.2027 12.9115 20.9541 12.7942 20.7665C12.677 20.5789 12.4284 20.5226 12.2408 20.6398L10.8056 21.5404L8.00547 19.7909V17.033L10.8056 15.2836C12.3674 16.2591 12.2642 16.2122 12.3768 16.231C12.5644 16.2638 12.752 16.1653 12.8224 15.9871C12.8927 15.8089 12.827 15.6072 12.6676 15.504L11.2042 14.5894V11.8315L14.0043 10.0821L16.8044 11.8315V12.4084C16.8044 12.6289 16.9826 12.8071 17.203 12.8071C17.4235 12.8071 17.6017 12.6289 17.6017 12.4084V11.8315L20.4018 10.0821L23.2019 11.8315V14.8098C23.2019 15.0303 23.3801 15.2085 23.6005 15.2085C23.821 15.2085 23.9992 15.0303 23.9992 14.8098V11.6064C23.9992 11.4704 23.9289 11.3391 23.8116 11.2687L20.7958 9.38323V6.40023C20.7958 6.26422 20.7254 6.13289 20.6082 6.06254L17.4188 4.0598C17.2875 3.98007 17.1233 3.98007 16.9967 4.0598L14.009 5.92652L11.0166 4.0598C10.8853 3.98007 10.7211 3.98007 10.5945 4.0598L7.39105 6.06254C7.27379 6.13758 7.20344 6.26422 7.20344 6.40023V9.37854L4.18761 11.264C4.07035 11.3391 4 11.4657 4 11.6017V14.8052C4 14.9412 4.07035 15.0725 4.18761 15.1429L7.20344 17.0283V19.7862L4.18761 21.6717C4.07035 21.7467 4 21.8734 4 22.0094V25.2128C4 25.3488 4.07035 25.4755 4.18761 25.5505ZM17.2077 4.87121L20.0078 6.62068V9.37854L17.2077 11.128L14.4077 9.37854V6.62068L17.2077 4.87121ZM10.8056 4.87121L13.6056 6.62068V9.37854L10.8056 11.128L8.00547 9.37854V6.62068L10.8056 4.87121ZM4.80203 11.8269L7.60211 10.0774L10.4022 11.8269V14.5847L7.60211 16.3342L4.80203 14.5847V11.8269ZM4.80203 22.2298L7.60211 20.4804L10.4022 22.2298V24.9877L7.60211 26.7372L4.80203 24.9877V22.2298Z" />
    <path
      d="M22.4092 16.0106V15.6072C22.4092 14.9083 22.0997 14.2423 21.5697 13.7827L21.9683 12.9807C22.0668 12.7837 21.9824 12.5445 21.7854 12.446C21.5884 12.3475 21.3492 12.4272 21.2507 12.6242L20.8802 13.3699C20.3221 13.1495 19.6983 13.1495 19.1354 13.3699L18.7649 12.6242C18.7039 12.4929 18.5726 12.4084 18.4319 12.3991C18.2865 12.3897 18.1505 12.46 18.0707 12.5773C17.991 12.6992 17.9816 12.8493 18.0473 12.9807L18.446 13.7827C17.9113 14.2376 17.6017 14.9037 17.6017 15.6072V16.0106C17.2359 16.0059 16.8419 16.0059 16.401 16.0059C14.2763 16.0059 11.9969 16.9721 11.9969 18.4073C11.9969 20.1333 15.2472 21.0385 16.8653 20.7665C16.8278 21.0854 16.7997 21.5216 16.7997 21.8124C16.7997 24.6125 18.0004 26.8497 19.5998 27.1733V27.6189C19.5998 27.8394 19.778 28.0176 19.9984 28.0176C20.2189 28.0176 20.3971 27.8394 20.3971 27.6189V27.1687C21.9965 26.845 23.1972 24.6078 23.1972 21.8077C23.1972 21.5216 23.169 21.0807 23.1315 20.7665C24.7684 21.0385 28 20.1239 28 18.4073C28 16.9721 25.7252 16.0059 23.5959 16.0059C23.1925 16.0059 22.7844 16.0059 22.4092 16.0106ZM18.4084 15.6072C18.4084 14.7207 19.126 14.0078 20.0078 14.0078C20.8943 14.0078 21.6072 14.7254 21.6072 15.6072V16.0293C21.0678 16.0199 20.5237 16.0997 20.0078 16.2591C19.4919 16.0903 18.9478 16.0152 18.4038 16.0293V15.6072H18.4084ZM20.0125 18.1587C20.2001 18.5339 20.4299 18.8857 20.702 19.2046H19.3183C19.5857 18.8857 19.8202 18.5339 20.0125 18.1587ZM12.8036 18.4073C12.8036 17.685 14.4639 16.8079 16.4057 16.8079C17.2077 16.8079 19.0979 16.7938 19.5951 16.9533C19.4591 17.9148 18.0614 20.0113 16.4057 20.0113C14.4686 20.0066 12.8036 19.1296 12.8036 18.4073ZM18.4929 20.0066H21.5181C21.762 20.1989 22.0246 20.3631 22.3013 20.4991C22.3154 20.6023 22.3295 20.7055 22.3436 20.8087H19.6091C19.3887 20.8087 19.2105 20.9869 19.2105 21.2073C19.2105 21.4278 19.3887 21.606 19.6091 21.606H22.3998C22.4186 21.8734 22.4139 22.1407 22.3858 22.4081H17.6299C17.6017 22.1407 17.597 21.8734 17.6158 21.606H18.0051C18.2255 21.606 18.4038 21.4278 18.4038 21.2073C18.4038 20.9869 18.2255 20.8087 18.0051 20.8087H17.6721C17.6861 20.7008 17.7002 20.5976 17.7143 20.4897C17.9957 20.3584 18.2537 20.1989 18.4929 20.0066ZM18.2068 24.8095H20.0078C20.2283 24.8095 20.4065 24.6312 20.4065 24.4108C20.4065 24.1903 20.2283 24.0121 20.0078 24.0121H17.9113C17.8362 23.7495 17.7753 23.4821 17.7284 23.2101H22.292C22.2451 23.4821 22.1841 23.7495 22.109 24.0121H21.6119C21.3914 24.0121 21.2132 24.1903 21.2132 24.4108C21.2132 24.6312 21.3914 24.8095 21.6119 24.8095H21.8136C20.838 26.9435 19.1823 26.9435 18.2068 24.8095ZM27.212 18.4073C27.212 19.4016 24.2384 20.4053 22.8126 19.8519C21.6213 19.289 20.7442 18.229 20.4206 16.9533C20.9975 16.7798 22.7282 16.8079 23.6099 16.8032C25.5517 16.8079 27.212 17.685 27.212 18.4073Z" />
  </symbol>

  <symbol id="icon-aot" viewBox="0 0 32 32">
    <path
      d="M19.4701 18.3212C19.9297 19.0528 20.6565 19.4513 21.4349 19.4513C21.796 19.4513 22.1665 19.3669 22.5276 19.1887L23.925 18.6964L22.9918 17.5428C22.6026 16.9238 22.0164 16.5533 21.3787 16.4502C21.8664 16.4174 22.3494 16.2345 22.7667 15.8828L24.0047 15.0715L22.823 14.1758C22.5557 13.9132 22.2509 13.7397 21.932 13.6225C22.1993 13.4209 22.4291 13.1536 22.6073 12.83L23.4654 11.6202L22.0399 11.2169C21.4818 10.9824 20.9097 10.9637 20.4033 11.1278C20.7644 10.837 21.0457 10.4338 21.1958 9.93669L21.7913 8.58148L20.3142 8.47362C19.0715 8.23447 17.9601 8.90035 17.5944 10.1102L17.1161 11.1934C16.8206 10.8558 16.5018 10.5416 16.1547 10.2556L17.2989 9.64596C18.4807 9.19109 19.0621 8.03283 18.7292 6.8136L18.5135 5.34584L17.2052 6.03986C16.0234 6.49472 15.442 7.65299 15.7749 8.8769L15.9531 10.0868C15.5592 9.78195 15.1372 9.51934 14.687 9.28957L15.245 8.27198C15.9859 7.24502 15.8406 5.95545 14.8886 5.11606L13.9086 4L13.1958 5.29894C12.4549 6.32591 12.6002 7.61547 13.5522 8.45486L14.0211 8.98007C13.9179 8.93787 13.8195 8.89566 13.7116 8.85815C13.5287 8.79719 13.3411 8.86753 13.2333 9.01758L12.4642 8.13599C11.7515 7.09027 10.4947 6.78077 9.37866 7.38101L8 7.92497L8.97069 9.04103C9.43963 9.73036 10.143 10.1008 10.8933 10.1008C11.0199 10.1008 11.1465 10.0868 11.2685 10.0633C10.6729 10.2931 10.1852 10.7714 9.92732 11.4467L9.24267 12.7644L10.7104 12.966C10.9308 13.0223 11.1512 13.0504 11.3669 13.0504C11.7468 13.0504 12.1079 12.9566 12.4267 12.7878C12.3095 13.1348 12.2673 13.5193 12.3236 13.9226L12.3611 15.4045L13.7444 14.8746C13.857 14.8464 13.9648 14.8042 14.068 14.762C14.0352 14.8746 14.0023 14.9918 13.9836 15.1137L13.585 16.5393L15.0621 16.4408C15.0809 16.4408 15.0996 16.4361 15.1184 16.4408C14.8839 16.6518 14.6776 16.9097 14.5276 17.2239L13.7304 18.4713L15.1747 18.8042C15.3435 18.8652 15.5123 18.9027 15.6811 18.9261C15.0621 18.9777 14.476 19.2778 14.0399 19.8265L12.9848 20.8675L14.3212 21.51C14.7386 21.7773 15.1887 21.9086 15.6249 21.9086C16.3095 21.9086 16.9707 21.5944 17.4537 20.9894L17.51 20.9332C16.1923 24.1172 13.3552 26.4525 9.61782 27.1653C9.38804 27.2075 9.23798 27.4326 9.28019 27.6577C9.3177 27.8593 9.4959 28 9.69285 28C9.72098 28 9.74443 27.9953 9.77257 27.9906C13.5756 27.2638 16.5111 24.9801 18.0258 21.8429L17.9695 23.0856C17.7585 24.3329 18.4572 25.4256 19.6811 25.7632L21.0551 26.3212L21.1254 24.8394C21.3365 23.592 20.6377 22.4994 19.4138 22.1618L18.1336 21.6366C18.3634 21.1301 18.551 20.6049 18.7104 20.061L18.8886 20.6893C19.0856 21.9367 20.0938 22.7573 21.3599 22.687L22.837 22.7855L22.4338 21.3599C22.2368 20.1079 21.2192 19.2919 19.9625 19.3623L18.9027 19.2919C19.0012 18.8277 19.0762 18.354 19.1184 17.871L19.4701 18.3212ZM17.5287 6.80891L17.857 6.64009L17.9039 6.94959L17.9132 7.00117C18.143 7.81243 17.7679 8.55803 16.9801 8.85346L16.6518 9.02227L16.6049 8.71278L16.5955 8.6612C16.3611 7.84994 16.7362 7.10434 17.5287 6.80891ZM13.8898 5.77257L14.0727 5.449L14.2837 5.68347L14.3212 5.72098C14.959 6.27433 15.0528 7.09965 14.551 7.7796L14.3681 8.10317L14.1618 7.8687L14.1243 7.83118C13.4865 7.28253 13.3927 6.45252 13.8898 5.77257ZM18.8136 23.2169L18.8324 22.8511L19.1231 22.9683L19.1747 22.9871C19.9906 23.2028 20.4408 23.9015 20.2907 24.7362L20.272 25.102L19.9812 24.9848L19.9297 24.966C19.1137 24.7503 18.6635 24.0469 18.8136 23.2169ZM19.9672 20.2204H19.9953C20.8347 20.1594 21.4865 20.6893 21.6084 21.524L21.7069 21.8804L21.3646 21.857H21.3365C20.5018 21.9179 19.8453 21.388 19.7233 20.5533L19.6249 20.197L19.9672 20.2204ZM19.1653 16.9472C19.1653 16.8253 19.1747 16.7081 19.1747 16.5862C19.17 16.1735 19.1278 15.7655 19.0668 15.3669L19.5967 15.7702C19.9672 16.1313 20.4033 16.347 20.8581 16.422C20.5533 16.4455 20.2438 16.5252 19.9437 16.6753L19.1653 16.9472ZM18.5744 13.585L19.6108 13.8804C19.6764 13.9086 19.7421 13.932 19.803 13.9508C19.7515 13.9883 19.6999 14.0164 19.6483 14.0586L18.8886 14.5557C18.8089 14.2227 18.7011 13.8992 18.5744 13.585ZM22.2884 18.007L22.5182 18.2978L22.2227 18.4009L22.1712 18.4244C21.4209 18.8042 20.619 18.5791 20.1782 17.8617L19.9484 17.5709L20.2438 17.4678L20.2954 17.4443C21.0457 17.0598 21.8476 17.2849 22.2884 18.007ZM22.5463 15.0152L22.2837 15.1887L22.2415 15.2216C21.5991 15.7749 20.7691 15.7421 20.1688 15.1512L19.8781 14.9261L20.1407 14.7526L20.1829 14.7198C20.8206 14.1665 21.6553 14.1993 22.2556 14.7902L22.5463 15.0152ZM21.7304 11.9953L22.0821 12.0985L21.8992 12.3564L21.871 12.4033C21.4771 13.1489 20.6893 13.4256 19.9156 13.0926L19.5639 12.9894L19.7468 12.7315L19.7749 12.6846C20.1735 11.939 20.9566 11.6624 21.7304 11.9953ZM18.3775 10.415L18.3962 10.3634C18.6307 9.55217 19.3435 9.12075 20.1735 9.29426L20.5393 9.32239L20.4127 9.60844L20.3939 9.66002C20.1594 10.4713 19.442 10.898 18.6166 10.7292L18.2509 10.7011L18.3775 10.415ZM18.476 11.5639C18.6448 11.5967 18.8136 11.6155 18.9777 11.6155C19.2263 11.6155 19.4607 11.578 19.6858 11.5076C19.4326 11.7046 19.2122 11.9578 19.0434 12.2673L18.3962 13.177C18.1196 12.5721 17.7726 12 17.3646 11.4842L18.476 11.5639ZM17.3927 13.0504L16.4549 13.1114C16.0938 13.0926 15.7562 13.1536 15.4467 13.2708C15.5358 12.9519 15.5686 12.6049 15.517 12.2392L15.4795 10.7808C16.2673 11.3998 16.9144 12.1735 17.3927 13.0504ZM9.66002 8.55334L9.42087 8.27198L9.71161 8.15944L9.76319 8.13599C10.4994 7.72802 11.3107 7.92497 11.7749 8.62837L12.0141 8.90973L11.7233 9.02227L11.6717 9.04572C10.9355 9.45369 10.1243 9.25205 9.66002 8.55334ZM12.0563 9.79601L13.1676 9.35991C13.2005 9.49121 13.2943 9.60844 13.4302 9.65533C14.1759 9.91325 14.8558 10.2931 15.4607 10.7667L14.0961 11.2872C13.8898 11.3388 13.7069 11.4185 13.5334 11.5076L14.2181 10.1899L12.7503 9.98828C12.4033 9.89918 12.0703 9.88511 11.7515 9.93669C11.8546 9.89449 11.9578 9.85229 12.0563 9.79601ZM10.9121 12.1454L10.5463 12.0891L10.6917 11.8124L10.7151 11.7608C11.0012 10.9683 11.7421 10.5838 12.558 10.8089L12.9238 10.8652L12.7784 11.1419L12.755 11.1934C12.4642 11.9859 11.7233 12.3705 10.9121 12.1454ZM13.5287 14.0633L13.1817 14.1899L13.1723 13.8757L13.1676 13.8195C13.0363 12.9848 13.5006 12.2954 14.3212 12.0985L14.6682 11.9719L14.6776 12.286L14.6823 12.3423C14.8136 13.177 14.3494 13.8664 13.5287 14.0633ZM15.0668 15.5967L14.7245 15.6202L14.8089 15.32L14.8183 15.2638C14.9355 14.4666 15.5264 13.9555 16.3095 13.9555C16.347 13.9555 16.3845 13.9555 16.4267 13.9601H16.4549L16.7972 13.9367L16.7128 14.2368L16.7034 14.2931C16.5815 15.1278 15.9437 15.653 15.095 15.6014L15.0668 15.5967ZM17.5334 14.4431L17.7304 13.7444C18.0539 14.5135 18.2509 15.3482 18.3072 16.2157L17.4678 16.0234C17.2286 15.939 16.9894 15.8968 16.755 15.8828C17.163 15.5311 17.4443 15.0387 17.5334 14.4431ZM15.0903 17.9226L15.2591 17.66L15.2872 17.6131C15.6436 16.8488 16.4174 16.5346 17.2052 16.83L17.5662 16.9144L17.3974 17.177L17.3693 17.2239C17.0129 17.9883 16.2392 18.3072 15.4513 18.007L15.0903 17.9226ZM16.8441 20.4174L16.8066 20.4596C16.2907 21.1254 15.4654 21.2614 14.762 20.8019L14.4338 20.6377L14.6589 20.4174L14.6964 20.3751C15.2122 19.7093 16.0328 19.5733 16.7409 20.0328L17.0692 20.197L16.8441 20.4174ZM17.177 19.3107C16.8722 19.1137 16.544 19.0012 16.2204 18.9496C17.0223 18.8839 17.7351 18.4103 18.1196 17.6038L18.3118 17.3036C18.2743 18.129 18.1524 18.9215 17.9461 19.6811L17.177 19.3107Z" />
  </symbol>

  <symbol id="icon-seaweed" viewBox="0 0 32 32">
    <path
      d="M21.625 5C21.3672 5 21.1562 5.21094 21.1562 5.46875C21.1562 5.72656 21.3672 5.9375 21.625 5.9375C21.8828 5.9375 22.0938 5.72656 22.0938 5.46875C22.0938 5.21094 21.8828 5 21.625 5Z" />
    <path
      d="M27.5312 26.5625H24.8922C24.9906 26.3891 25.0469 26.1922 25.0469 25.9813V24.8844C25.0469 24.7156 25.1687 24.5984 25.3422 24.5984H26.7531C27.4422 24.5984 28 24.0313 28 23.3328C28 21.9969 27.4797 20.7453 26.5375 19.7984C25.7453 19.0063 24.4094 19.5828 24.4094 20.6797C24.4094 20.8484 24.2734 20.9891 24.1 20.9891H22.6891C22.5344 20.9891 22.3844 21.0172 22.2438 21.0734L22.0984 20.675C22.0422 20.5156 22.1219 20.3375 22.2812 20.2813L23.3125 19.9063C23.9594 19.6719 24.2922 18.9547 24.0578 18.3078L23.6828 17.2766C23.6266 17.1172 23.7062 16.9391 23.8656 16.8828C24.9109 16.5031 24.9719 15.0547 23.9641 14.5812C22.7547 14.0187 21.4 13.9578 20.1437 14.4125C19.4969 14.6469 19.1641 15.3641 19.3984 16.0109L19.7734 17.0422C19.8297 17.2016 19.75 17.3797 19.5906 17.4359L18.9531 17.6656C18.9578 17.3422 18.8359 17.0188 18.5875 16.775L17.8094 15.9969C17.6875 15.875 17.6875 15.6828 17.8094 15.5609L18.5875 14.7828C19.075 14.2953 19.075 13.5078 18.5875 13.0203C17.65 12.0828 16.3984 11.5625 15.0625 11.5625C13.9422 11.5625 13.4031 12.9125 14.1812 13.6906C14.3031 13.8125 14.3031 14.0047 14.1812 14.1266L13.4031 14.9047C12.9156 15.3922 12.9156 16.1797 13.4031 16.6672L14.1812 17.4453C14.3031 17.5672 14.3031 17.7594 14.1812 17.8812L13.8906 18.1719C13.7547 18.0172 13.5813 17.8953 13.3797 17.8203L12.3484 17.4453C12.2688 17.4172 12.2078 17.3609 12.175 17.2859C12.1422 17.2109 12.1375 17.1266 12.1656 17.0516L12.5406 16.0203C12.775 15.3734 12.4422 14.6609 11.7953 14.4219C10.5438 13.9672 9.18438 14.0234 7.975 14.5906C6.97188 15.0594 7.03281 16.5078 8.07344 16.8875C8.23281 16.9438 8.31719 17.1219 8.25625 17.2813L7.88125 18.3125C7.64688 18.9594 7.97969 19.6719 8.62656 19.9109L9.65781 20.2859C9.81719 20.3422 9.90156 20.5203 9.84062 20.6797L9.69531 21.0734C9.55469 21.0172 9.4 20.9891 9.25 20.9891H7.89062C7.72187 20.9891 7.58125 20.8531 7.58125 20.6797C7.58125 19.5828 6.24531 19.0063 5.45312 19.7984C4.53437 20.7266 4 22.0203 4 23.3469C4 24.0359 4.55781 24.5938 5.24688 24.5938H6.60625C6.77969 24.5938 6.90625 24.7156 6.90625 24.8797V25.9766C6.90625 26.1875 6.95781 26.3844 7.05156 26.5578H4.46875C4.21094 26.5578 4 26.7688 4 27.0266C4 27.2844 4.21094 27.4953 4.46875 27.4953C5.36875 27.4953 26.2375 27.4953 27.5312 27.4953C27.7891 27.4953 28 27.2844 28 27.0266C28 26.7688 27.7891 26.5625 27.5312 26.5625ZM10.0375 26.5625C9.81719 26.3797 9.54063 26.2813 9.25469 26.2813H8.15781C7.98437 26.2813 7.84375 26.1453 7.84375 25.9813V24.8844C7.84375 24.1953 7.3 23.6609 6.60625 23.6609H5.24688C5.07812 23.6609 4.9375 23.525 4.9375 23.3516C4.9375 22.2688 5.36875 21.2188 6.12813 20.4641C6.32031 20.2719 6.65312 20.4078 6.65312 20.6797C6.65312 21.3688 7.21094 21.9266 7.9 21.9266L9.25937 21.9219C9.35312 21.9219 9.44219 21.9688 9.50313 22.0391C9.51719 22.0719 9.53594 22.1047 9.55937 22.1328C9.57344 22.1656 9.57812 22.2031 9.57812 22.2406V23.3281C9.57812 24.0266 10.1313 24.5938 10.8109 24.5938H11.9078C12.0766 24.5938 12.2031 24.7156 12.2031 24.8797V25.9766C12.2031 26.1875 12.2547 26.3844 12.3531 26.5578H10.0375V26.5625ZM14.5609 26.2813H13.4641C13.2906 26.2813 13.1453 26.1453 13.1453 25.9813V24.8844C13.1453 24.1953 12.6062 23.6609 11.9125 23.6609H10.8156C10.6562 23.6609 10.5203 23.5109 10.5203 23.3328V22.2359C10.5203 22.0859 10.4922 21.9406 10.4406 21.8047L10.7313 21.0031C10.9656 20.3563 10.6328 19.6438 9.98594 19.4047L8.95469 19.0297C8.79531 18.9734 8.71094 18.7953 8.77188 18.6359L9.14688 17.6047C9.38125 16.9578 9.04844 16.2453 8.40156 16.0063C8.14375 15.9125 8.125 15.5563 8.37813 15.4391C9.3625 14.9797 10.4641 14.9328 11.4813 15.3031C11.6406 15.3594 11.725 15.5375 11.6641 15.6969L11.2891 16.7281C11.1766 17.0422 11.1906 17.3797 11.3312 17.6797C11.4719 17.9797 11.7203 18.2094 12.0344 18.3219L13.0656 18.6969C13.1453 18.725 13.2063 18.7859 13.2437 18.8609C12.9344 19.3438 12.9906 19.9953 13.4125 20.4125L14.1906 21.1906C14.3125 21.3125 14.3125 21.5047 14.1906 21.6266L13.4125 22.4047C12.925 22.8922 12.925 23.6797 13.4125 24.1672L14.6406 25.3953C14.5562 25.6578 14.5563 25.9391 14.6547 26.2109L14.6828 26.2906C14.6406 26.2859 14.5984 26.2813 14.5609 26.2813ZM15.2453 24.6734L14.0688 23.4969C13.9469 23.375 13.9469 23.1828 14.0688 23.0609L14.8469 22.2828C15.3344 21.7953 15.3344 21.0078 14.8469 20.5203L14.0688 19.7422C13.9469 19.6203 13.9469 19.4281 14.0688 19.3063L14.8469 18.5281C15.3344 18.0406 15.3344 17.2531 14.8469 16.7656C14.1344 16.0156 13.9797 15.9922 13.9797 15.7719C13.9797 15.6875 14.0125 15.6125 14.0688 15.5563L14.8469 14.7781C15.3344 14.2906 15.3344 13.5031 14.8469 13.0156C14.6547 12.8234 14.7906 12.4906 15.0625 12.4906C16.1453 12.4906 17.1672 12.9125 17.9313 13.6813C18.0531 13.8031 18.0531 13.9953 17.9313 14.1172L17.1531 14.8953C16.6656 15.3828 16.6656 16.1703 17.1531 16.6578L17.9313 17.4359C18.0531 17.5578 18.0531 17.75 17.9313 17.8719L17.1531 18.65C16.6656 19.1375 16.6656 19.925 17.1531 20.4125L17.6922 20.9516L16.975 21.2141C16.6609 21.3266 16.4125 21.5563 16.2719 21.8563C16.1312 22.1563 16.1172 22.4938 16.2297 22.8078L16.6047 23.8391C16.6609 23.9984 16.5813 24.1766 16.4219 24.2328L15.3906 24.6078C15.3438 24.6266 15.2922 24.65 15.2453 24.6734ZM18.0156 19.9438L17.8187 19.7469C17.7062 19.6344 17.6969 19.4563 17.7953 19.3344C17.8187 19.4094 17.8141 19.3906 18.0156 19.9438ZM19.6328 24.3922L20.0078 25.4234C20.0641 25.5828 19.9844 25.7609 19.825 25.8172L18.7938 26.1922C18.5875 26.2672 18.4094 26.3938 18.2687 26.5625H15.7797L15.5312 25.8828C15.475 25.7234 15.5547 25.5453 15.7141 25.4891L16.7453 25.1141C17.3922 24.8797 17.725 24.1625 17.4906 23.5156L17.1156 22.4844C17.0875 22.4094 17.0922 22.325 17.125 22.25C17.1578 22.175 17.2234 22.1188 17.2984 22.0906L18.3297 21.7156C18.4891 21.6594 18.6297 21.5703 18.7516 21.4578L18.7562 21.4531C18.7609 21.4484 18.7656 21.4438 18.7703 21.4391C19.1219 21.0969 19.2438 20.5813 19.075 20.1219L18.7 19.0906C18.6438 18.9313 18.7234 18.7531 18.8828 18.6969L19.9141 18.3219C20.5609 18.0875 20.8937 17.375 20.6594 16.7234L20.2844 15.6922C20.2281 15.5328 20.3078 15.3547 20.4672 15.2984C21.4844 14.9281 22.5859 14.975 23.5703 15.4344C23.8188 15.5516 23.8047 15.9078 23.5469 16.0016C22.9 16.2359 22.5672 16.9484 22.8016 17.5953L23.1766 18.6266C23.2328 18.7859 23.1531 18.9641 22.9938 19.0203L21.9625 19.3953C21.3156 19.6297 20.9828 20.3469 21.2172 20.9938L21.5453 21.8891C21.55 21.9594 21.5734 22.0297 21.6109 22.0906C21.6297 22.2313 21.55 22.3672 21.4094 22.4188L20.3781 22.7938C19.7312 23.0328 19.3984 23.7453 19.6328 24.3922ZM24.1094 24.8797V25.9766C24.1094 26.15 23.9406 26.2297 23.7859 26.2297H22.6891C22.4125 26.2297 22.1359 26.3469 21.9016 26.5578H20.4156C20.875 26.2484 21.0906 25.6531 20.8891 25.1L20.5141 24.0688C20.4578 23.9094 20.5375 23.7313 20.6969 23.675L21.7281 23.3C22.3 23.0938 22.6141 22.5172 22.5344 21.9594C22.5812 21.9359 22.6328 21.9172 22.6844 21.9172H24.0953C24.7844 21.9172 25.3422 21.3641 25.3422 20.675C25.3422 20.3984 25.675 20.2625 25.8672 20.4594C26.6406 21.2234 27.0625 22.2453 27.0625 23.3281C27.0625 23.5016 26.9172 23.6563 26.7531 23.6563H25.3422C24.6484 23.6563 24.1094 24.1953 24.1094 24.8797Z" />
    <path
      d="M18.3438 5.9375C17.3078 5.9375 16.4688 6.77656 16.4688 7.8125C16.4688 8.84844 17.3078 9.6875 18.3438 9.6875C19.3797 9.6875 20.2188 8.84844 20.2188 7.8125C20.2188 6.77656 19.3797 5.9375 18.3438 5.9375ZM18.3438 8.75C17.8281 8.75 17.4062 8.32812 17.4062 7.8125C17.4062 7.29688 17.8281 6.875 18.3438 6.875C18.8594 6.875 19.2812 7.29688 19.2812 7.8125C19.2812 8.32812 18.8594 8.75 18.3438 8.75Z" />
    <path
      d="M20.6875 10.625C19.9141 10.625 19.2812 11.2578 19.2812 12.0312C19.2812 12.8047 19.9141 13.4375 20.6875 13.4375C21.4609 13.4375 22.0938 12.8047 22.0938 12.0312C22.0938 11.2578 21.4609 10.625 20.6875 10.625ZM20.6875 12.5C20.4297 12.5 20.2188 12.2891 20.2188 12.0312C20.2188 11.7734 20.4297 11.5625 20.6875 11.5625C20.9453 11.5625 21.1562 11.7734 21.1562 12.0312C21.1562 12.2891 20.9453 12.5 20.6875 12.5Z" />
  </symbol>

  <symbol id="icon-seeds" viewBox="0 0 32 32">
    <path
      d="M26.4822 14.1448L26.3037 13.4356L25.6462 13.971C25.4114 13.3135 25.1624 12.919 25.0497 12.7546L24.9229 12.5761L24.7022 12.5573C24.5566 12.5479 24.2372 12.5386 23.7769 12.5949L24.0681 11.7072L23.2556 11.9045C23.0301 11.9609 22.7812 12.0313 22.5135 12.1205C22.5135 12.1205 22.5135 12.1205 22.5135 12.1159C22.6168 6.76164 20.3624 4.38513 20.1041 4.1362C20.0994 4.13151 20.0947 4.13151 20.09 4.12681C20.0853 4.12211 20.0806 4.11272 20.0759 4.10802C20.0431 4.08454 20.0102 4.07045 19.9726 4.05166C19.9538 4.04227 19.9397 4.03288 19.9209 4.02348C19.8599 4.0047 19.7941 3.9953 19.7284 4C19.7284 4 19.7284 4 19.7237 4C19.3667 4.03757 16.1213 4.48376 12.8337 8.75303C12.6458 9.03953 12.472 9.34012 12.3076 9.6454C10.8141 8.57456 9.6728 8.30215 9.33933 8.2411C9.20313 8.21761 9.06223 8.25518 8.9589 8.34442C8.78982 8.49002 7.78474 9.40587 6.991 11.3738C6.9816 11.3973 6.97221 11.416 6.96282 11.4395C6.49315 12.6278 6.09863 14.1824 6 16.1785C6.03757 17.3339 6.21605 18.5127 6.53542 19.6775C6.85479 20.8423 7.30098 21.946 7.87867 22.9933C9.22192 25.0129 10.4431 25.5155 11.4387 25.5155C12.0305 25.5155 12.5472 25.337 12.9558 25.1961C13.1718 25.1209 14.1065 24.8579 14.2614 24.825C14.7264 25.7691 15.5249 26.1589 16.1072 26.4407C16.3139 26.5393 17.3049 27.1076 17.4975 27.2297C17.9953 27.5585 18.6622 28 19.5875 28C20.4658 28 21.5742 27.6008 22.9879 26.3233C23.7816 25.4779 24.4861 24.5198 25.0826 23.4677C25.6791 22.4204 26.1487 21.3213 26.4775 20.1706C27.0411 17.4184 26.7922 15.3753 26.4822 14.1448ZM23.4528 13.5906C23.8755 13.5014 24.1996 13.4826 24.411 13.4779C24.5331 13.6892 24.7115 14.0556 24.8759 14.591L22.4947 16.5166L23.4528 13.5906ZM18.62 5.24931C18.2489 5.80352 17.8779 6.43288 17.4834 7.18904C17.3659 7.41448 17.4505 7.69628 17.6759 7.81839C17.7464 7.85597 17.8215 7.87006 17.892 7.87006C18.0611 7.87006 18.2207 7.78082 18.3053 7.62113C18.8313 6.62074 19.3057 5.85519 19.7941 5.20235C20.4282 6.03836 21.6587 8.17064 21.5836 12.0595C21.5695 12.2051 21.5507 12.3507 21.5272 12.4963C21.5131 12.501 21.5037 12.5057 21.4896 12.5151C21.3675 12.5714 21.2407 12.6278 21.1092 12.6935C21.0247 12.7358 20.9401 12.7781 20.8556 12.8204C20.8086 12.8438 20.7569 12.872 20.71 12.8955C20.2356 13.1491 19.7659 13.4356 19.2963 13.7597C19.2634 13.7785 19.2352 13.802 19.2023 13.8254C19.0943 13.9006 18.9863 13.9804 18.8783 14.0603C18.8313 14.0931 18.789 14.126 18.7421 14.1636C18.6434 14.2387 18.5448 14.3139 18.4462 14.3937C18.3851 14.4454 18.3194 14.4971 18.2536 14.5487C18.1691 14.6145 18.0892 14.6849 18.0047 14.7554C17.8544 14.8822 17.7041 15.0137 17.5538 15.1499C17.3566 15.3613 17.164 15.5773 16.9761 15.8027C16.591 16.2677 16.2294 16.7609 15.8959 17.2822C15.7456 17.517 15.6 17.7566 15.4591 18.0008C15.4403 18.0337 15.4215 18.0712 15.4027 18.1041C15.2431 18.3859 15.0975 18.6724 14.9566 18.9636C14.9519 18.9683 14.9519 18.9777 14.9472 18.9871L14.9378 19.0106C14.9331 19.02 14.9284 19.0294 14.9237 19.0387C14.9096 19.0716 14.8908 19.1092 14.8767 19.1421C15.2431 16.1456 15.9147 13.3323 16.8869 10.7726C16.9761 10.5331 16.8587 10.2654 16.6145 10.1714C16.375 10.0822 16.1025 10.1996 16.0133 10.4438C14.9894 13.1538 14.2849 16.1362 13.9186 19.3159C13.8341 19.2924 13.7542 19.2642 13.665 19.2407C12.6411 18.9542 11.3636 18.602 11.4247 15.4928C11.5327 14.4125 11.7816 13.3229 12.1573 12.2521C12.3546 11.6885 12.5988 11.1202 12.8806 10.5566C12.8806 10.5519 12.8806 10.5519 12.8853 10.5472C13.1061 10.1104 13.3409 9.68767 13.5945 9.29315C15.553 6.75695 17.4364 5.6955 18.62 5.24931ZM13.9796 23.9327C13.8012 23.9749 12.9605 24.2098 12.6552 24.3178C11.6501 24.6654 10.4008 25.1022 8.6771 22.5143C8.15108 21.5656 7.73307 20.5276 7.43718 19.4333C7.13659 18.3389 6.96751 17.2352 6.93464 16.1879C7.02387 14.4501 7.34325 13.0881 7.73307 12.0313C8.43288 11.9984 9.13268 11.9045 9.809 11.7354C10.0579 11.6744 10.2129 11.4207 10.1472 11.1718C10.0861 10.9229 9.83249 10.7679 9.58356 10.829C9.1092 10.9464 8.62544 11.0215 8.13699 11.0685C8.62544 10.0681 9.13738 9.47162 9.40039 9.20391C9.82309 9.31194 10.7342 9.62661 11.8849 10.4767C11.8708 10.5049 11.8614 10.5378 11.8474 10.5659C11.7534 10.7679 11.6595 10.9746 11.575 11.1812C11.4716 11.4348 11.373 11.6838 11.2885 11.9327C10.8892 13.0693 10.6262 14.234 10.5041 15.4223C10.429 19.2877 12.3076 19.8137 13.4254 20.1237C13.6462 20.1847 14.3037 20.4665 14.3178 20.4665C14.3225 20.4665 14.3366 20.4665 14.3366 20.4665C14.3272 20.49 14.3225 20.5182 14.3131 20.5464C14.2239 20.7906 14.1487 21.0254 14.083 21.2509C14.0783 21.265 14.0783 21.2744 14.0736 21.2885C14.0219 21.5374 13.9843 21.7722 13.9562 21.9977C13.9468 22.0728 13.9421 22.1479 13.9327 22.2231C13.9186 22.3687 13.9045 22.519 13.8951 22.6552C13.8904 22.7303 13.8904 22.7961 13.8904 22.8712C13.8857 23.0121 13.8904 23.1483 13.8951 23.2798C13.8998 23.3315 13.8998 23.3832 13.9045 23.4301C13.9186 23.6039 13.9374 23.7636 13.9656 23.9139C13.975 23.9186 13.975 23.928 13.9796 23.9327ZM25.5804 19.9546C25.2798 20.9973 24.8431 22.0258 24.2795 23.0121C23.7205 23.9984 23.0583 24.9002 22.3444 25.6611C20.0102 27.7699 18.9065 27.0419 18.0188 26.4548C17.7511 26.2763 16.807 25.7409 16.5205 25.6C15.9523 25.3229 15.3041 25.0035 14.9988 24.1581C14.9988 24.1487 14.9988 24.1393 14.9941 24.1346C14.7687 23.4865 14.7687 22.5988 14.9894 21.4998C15.0458 21.3025 15.1115 21.1006 15.182 20.9033C15.2431 20.7249 15.3135 20.537 15.3933 20.335C15.5155 20.0204 15.6517 19.7104 15.7926 19.4098C15.802 19.3863 15.816 19.3581 15.816 19.3581C15.816 19.3581 15.816 19.3581 15.816 19.3534C15.9616 19.0434 16.1166 18.7476 16.281 18.4564C16.4125 18.2262 16.5487 18.0008 16.6896 17.78C16.8352 17.5546 16.9855 17.3339 17.1405 17.1225L17.1452 17.1178C17.1452 17.1178 17.1452 17.1178 17.1452 17.1131C17.4834 16.6481 17.8403 16.2067 18.216 15.8074C18.4086 15.6337 18.6012 15.4693 18.789 15.3143C18.8454 15.2673 18.9018 15.225 18.9534 15.1781C19.0943 15.0654 19.2305 14.9573 19.3667 14.8587C19.4231 14.8164 19.4795 14.7742 19.5358 14.7319C19.6814 14.6286 19.8223 14.5252 19.9632 14.4313C20.0055 14.4031 20.0477 14.375 20.09 14.3468C20.4611 14.1025 20.818 13.8912 21.1609 13.708C21.2313 13.6704 21.3018 13.6376 21.3675 13.6047C21.4661 13.5577 21.5648 13.5061 21.6587 13.4591C21.7761 13.4027 21.8935 13.3511 22.011 13.3041C22.2317 13.2102 22.4477 13.1256 22.645 13.0552L20.6254 19.2313L25.726 15.1029C25.9233 16.2536 25.9937 17.8881 25.5804 19.9546Z" />
    <path
      d="M19.5828 15.9389C19.4372 16.0235 16.0462 18.1135 15.8301 22.3311C15.816 22.5894 16.0133 22.8055 16.2716 22.8196C16.281 22.8196 16.2857 22.8196 16.2951 22.8196C16.5393 22.8196 16.746 22.627 16.7601 22.3781C16.9479 18.6677 20.0289 16.7562 20.0618 16.7374C20.2826 16.6059 20.353 16.3194 20.2215 16.0986C20.09 15.8779 19.8035 15.8074 19.5828 15.9389Z" />
  </symbol>

  <symbol id="icon-arrow--left" viewBox="0 0 15 29">
    <path d="M14 28L1.91422 15.9142C1.13317 15.1332 1.13317 13.8668 1.91421 13.0858L14 1" />
  </symbol>

  <symbol id="icon-arrow--right" viewBox="0 0 15 29">
    <path d="M1 1L13.0858 13.0858C13.8668 13.8668 13.8668 15.1332 13.0858 15.9142L1 28" />
  </symbol>

  <symbol id='icon-burger' viewBox="0 0 26 24">
    <path
      d="M23.9417 0H2.05833C0.866667 0 0 0.866667 0 2.05833V2.38333C0 3.46667 0.866667 4.33333 2.05833 4.33333H24.05C25.1333 4.33333 26.1083 3.46667 26.1083 2.275V2.05833C26 0.866667 25.1333 0 23.9417 0Z" />
    <path
      d="M23.9417 9.75H2.05833C0.866667 9.75 0 10.725 0 11.8083V12.1333C0 13.2167 0.866667 14.1917 2.05833 14.1917H24.05C25.1333 14.1917 26.1083 13.325 26.1083 12.1333V11.8083C26 10.725 25.1333 9.75 23.9417 9.75Z" />
    <path
      d="M23.9417 19.5H2.05833C0.975 19.5 0 20.3667 0 21.5583V21.8833C0 22.9667 0.866667 23.9417 2.05833 23.9417H24.05C25.1333 23.9417 26.1083 23.075 26.1083 21.8833V21.5583C26 20.475 25.1333 19.5 23.9417 19.5Z" />
  </symbol>

  <symbol id='icon-close' viewBox="0 0 20 20">
    <path
      d="M13.5556 10L19.3333 4.22222C20.2222 3.33333 20.2222 2 19.3333 1.22222L18.8889 0.777778C18 -0.111111 16.6667 -0.111111 15.8889 0.777778L10 6.44445L4.22222 0.666667C3.33333 -0.222222 2 -0.222222 1.11111 0.666667L0.666667 1.11111C-0.222222 2 -0.222222 3.33333 0.666667 4.11111L6.44445 10L0.666667 15.7778C-0.222222 16.6667 -0.222222 18 0.666667 18.7778L1.11111 19.3333C2 20.2222 3.33333 20.2222 4.11111 19.3333L10 13.5556L15.7778 19.3333C16.6667 20.2222 18 20.2222 18.7778 19.3333L19.2222 18.8889C20.1111 18 20.1111 16.6667 19.2222 15.8889L13.5556 10Z" />
  </symbol>

  <symbol id='icon-caretdown' viewBox="0 0 9 7">
    <path d="M4.5 7L0.602887 0.249999L8.39711 0.25L4.5 7Z" />
  </symbol>

  

  <svg id='icon-play' viewBox="0 0 12 17">
    <path
      d="M11.407 9.42903L2.94746 16.1687C2.1387 16.8102 0.948792 16.2338 0.948792 15.2019V1.72252C0.948792 0.690645 2.1387 0.114283 2.94746 0.755718L11.407 7.49543C12.0205 7.98813 12.0205 8.93633 11.407 9.42903Z" />
  </svg>






</svg>